<svg width="1096" height="480" viewBox="0 0 1096 480" fill="none" xmlns="http://www.w3.org/2000/svg">
<path d="M307.325 292.287C303.829 286.767 296.521 285.127 291.001 288.623C285.481 292.119 283.841 299.428 287.337 304.948C290.833 310.467 298.142 312.108 303.661 308.612C309.181 305.116 310.822 297.807 307.325 292.287Z" fill="url(#paint0_radial_80_162)"/>
<path d="M307.325 292.287C303.829 286.767 296.521 285.127 291.001 288.623C285.481 292.119 283.841 299.428 287.337 304.948C290.833 310.467 298.142 312.108 303.661 308.612C309.181 305.116 310.822 297.807 307.325 292.287Z" fill="url(#paint1_radial_80_162)"/>
<path d="M312.737 173.917C309.241 168.397 301.932 166.757 296.413 170.253C290.893 173.749 289.252 181.058 292.749 186.578C296.245 192.097 303.553 193.738 309.073 190.242C314.593 186.746 316.233 179.437 312.737 173.917Z" fill="url(#paint2_radial_80_162)"/>
<path d="M312.737 173.917C309.241 168.397 301.932 166.757 296.413 170.253C290.893 173.749 289.252 181.058 292.749 186.578C296.245 192.097 303.553 193.738 309.073 190.242C314.593 186.746 316.233 179.437 312.737 173.917Z" fill="url(#paint3_radial_80_162)"/>
<path d="M312.737 173.917C309.241 168.397 301.932 166.757 296.413 170.253C290.893 173.749 289.252 181.058 292.749 186.578C296.245 192.097 303.553 193.738 309.073 190.242C314.593 186.746 316.233 179.437 312.737 173.917Z" fill="url(#paint4_radial_80_162)"/>
<path d="M186.036 265.898C182.54 260.378 175.231 258.738 169.712 262.234C164.192 265.73 162.552 273.039 166.048 278.558C169.544 284.078 176.853 285.718 182.372 282.222C187.892 278.726 189.533 271.417 186.036 265.898Z" fill="url(#paint5_radial_80_162)"/>
<path d="M186.036 265.898C182.54 260.378 175.231 258.738 169.712 262.234C164.192 265.73 162.552 273.039 166.048 278.558C169.544 284.078 176.853 285.718 182.372 282.222C187.892 278.726 189.533 271.417 186.036 265.898Z" fill="url(#paint6_radial_80_162)"/>
<path d="M228.508 400C225.012 394.48 217.703 392.84 212.184 396.336C206.664 399.832 205.023 407.141 208.52 412.661C212.016 418.18 219.324 419.821 224.844 416.325C230.364 412.829 232.004 405.52 228.508 400Z" fill="url(#paint7_radial_80_162)"/>
<path d="M228.508 400C225.012 394.48 217.703 392.84 212.184 396.336C206.664 399.832 205.023 407.141 208.52 412.661C212.016 418.18 219.324 419.821 224.844 416.325C230.364 412.829 232.004 405.52 228.508 400Z" fill="url(#paint8_radial_80_162)"/>
<path d="M228.508 400C225.012 394.48 217.703 392.84 212.184 396.336C206.664 399.832 205.023 407.141 208.52 412.661C212.016 418.18 219.324 419.821 224.844 416.325C230.364 412.829 232.004 405.52 228.508 400Z" fill="url(#paint9_radial_80_162)"/>
<path d="M294.538 417.103C291.042 411.583 283.733 409.943 278.214 413.439C272.694 416.935 271.054 424.244 274.55 429.764C278.046 435.283 285.355 436.924 290.874 433.428C296.394 429.932 298.034 422.623 294.538 417.103Z" fill="url(#paint10_radial_80_162)"/>
<path d="M294.538 417.103C291.042 411.583 283.733 409.943 278.214 413.439C272.694 416.935 271.054 424.244 274.55 429.764C278.046 435.283 285.355 436.924 290.874 433.428C296.394 429.932 298.034 422.623 294.538 417.103Z" fill="url(#paint11_radial_80_162)"/>
<path fill-rule="evenodd" clip-rule="evenodd" d="M205.191 206.277C218.282 239.862 243.161 248.851 252.847 250.559C258.463 251.55 262.212 256.905 261.221 262.52C260.231 268.136 254.876 271.886 249.26 270.895C234.242 268.246 202.254 255.599 185.951 213.776C183.88 208.464 186.508 202.478 191.821 200.406C197.134 198.336 203.12 200.964 205.191 206.277Z" fill="url(#paint12_radial_80_162)"/>
<path fill-rule="evenodd" clip-rule="evenodd" d="M205.191 206.277C218.282 239.862 243.161 248.851 252.847 250.559C258.463 251.55 262.212 256.905 261.221 262.52C260.231 268.136 254.876 271.886 249.26 270.895C234.242 268.246 202.254 255.599 185.951 213.776C183.88 208.464 186.508 202.478 191.821 200.406C197.134 198.336 203.12 200.964 205.191 206.277Z" fill="url(#paint13_radial_80_162)"/>
<path fill-rule="evenodd" clip-rule="evenodd" d="M159.891 337.387C157.337 332.905 158.901 327.2 163.383 324.646C169.555 321.13 180.232 315.897 192.547 311.744C202.841 308.274 214.852 305.361 226.598 305.151C232.422 299.714 240.205 294.738 249.947 290.487C254.676 288.423 260.182 290.583 262.246 295.312C264.308 300.041 262.148 305.547 257.42 307.61C255.24 308.562 253.243 309.522 251.414 310.484C253.183 311.51 254.803 312.682 256.265 314C261.975 319.149 264.564 325.917 264.41 332.591C264.119 345.27 253.724 357.615 238.725 357.443C224.457 357.281 213.041 345.337 213.642 330.375C213.712 328.651 213.933 326.932 214.305 325.226C209.054 326.224 203.71 327.697 198.516 329.448C187.468 333.172 177.886 337.885 172.632 340.879C168.149 343.433 162.445 341.87 159.891 337.387ZM234.714 324.299C232.978 327.077 232.378 329.451 232.31 331.127C232.122 335.807 235.436 338.722 238.938 338.762C242.693 338.805 245.652 335.65 245.733 332.161C245.765 330.749 245.295 329.265 243.754 327.876C242.359 326.618 239.639 325.066 234.714 324.299Z" fill="url(#paint14_linear_80_162)"/>
<path fill-rule="evenodd" clip-rule="evenodd" d="M159.891 337.387C157.337 332.905 158.901 327.2 163.383 324.646C169.555 321.13 180.232 315.897 192.547 311.744C202.841 308.274 214.852 305.361 226.598 305.151C232.422 299.714 240.205 294.738 249.947 290.487C254.676 288.423 260.182 290.583 262.246 295.312C264.308 300.041 262.148 305.547 257.42 307.61C255.24 308.562 253.243 309.522 251.414 310.484C253.183 311.51 254.803 312.682 256.265 314C261.975 319.149 264.564 325.917 264.41 332.591C264.119 345.27 253.724 357.615 238.725 357.443C224.457 357.281 213.041 345.337 213.642 330.375C213.712 328.651 213.933 326.932 214.305 325.226C209.054 326.224 203.71 327.697 198.516 329.448C187.468 333.172 177.886 337.885 172.632 340.879C168.149 343.433 162.445 341.87 159.891 337.387ZM234.714 324.299C232.978 327.077 232.378 329.451 232.31 331.127C232.122 335.807 235.436 338.722 238.938 338.762C242.693 338.805 245.652 335.65 245.733 332.161C245.765 330.749 245.295 329.265 243.754 327.876C242.359 326.618 239.639 325.066 234.714 324.299Z" fill="url(#paint15_radial_80_162)"/>
<path fill-rule="evenodd" clip-rule="evenodd" d="M159.891 337.387C157.337 332.905 158.901 327.2 163.383 324.646C169.555 321.13 180.232 315.897 192.547 311.744C202.841 308.274 214.852 305.361 226.598 305.151C232.422 299.714 240.205 294.738 249.947 290.487C254.676 288.423 260.182 290.583 262.246 295.312C264.308 300.041 262.148 305.547 257.42 307.61C255.24 308.562 253.243 309.522 251.414 310.484C253.183 311.51 254.803 312.682 256.265 314C261.975 319.149 264.564 325.917 264.41 332.591C264.119 345.27 253.724 357.615 238.725 357.443C224.457 357.281 213.041 345.337 213.642 330.375C213.712 328.651 213.933 326.932 214.305 325.226C209.054 326.224 203.71 327.697 198.516 329.448C187.468 333.172 177.886 337.885 172.632 340.879C168.149 343.433 162.445 341.87 159.891 337.387ZM234.714 324.299C232.978 327.077 232.378 329.451 232.31 331.127C232.122 335.807 235.436 338.722 238.938 338.762C242.693 338.805 245.652 335.65 245.733 332.161C245.765 330.749 245.295 329.265 243.754 327.876C242.359 326.618 239.639 325.066 234.714 324.299Z" fill="url(#paint16_radial_80_162)"/>
<path fill-rule="evenodd" clip-rule="evenodd" d="M159.891 337.387C157.337 332.905 158.901 327.2 163.383 324.646C169.555 321.13 180.232 315.897 192.547 311.744C202.841 308.274 214.852 305.361 226.598 305.151C232.422 299.714 240.205 294.738 249.947 290.487C254.676 288.423 260.182 290.583 262.246 295.312C264.308 300.041 262.148 305.547 257.42 307.61C255.24 308.562 253.243 309.522 251.414 310.484C253.183 311.51 254.803 312.682 256.265 314C261.975 319.149 264.564 325.917 264.41 332.591C264.119 345.27 253.724 357.615 238.725 357.443C224.457 357.281 213.041 345.337 213.642 330.375C213.712 328.651 213.933 326.932 214.305 325.226C209.054 326.224 203.71 327.697 198.516 329.448C187.468 333.172 177.886 337.885 172.632 340.879C168.149 343.433 162.445 341.87 159.891 337.387ZM234.714 324.299C232.978 327.077 232.378 329.451 232.31 331.127C232.122 335.807 235.436 338.722 238.938 338.762C242.693 338.805 245.652 335.65 245.733 332.161C245.765 330.749 245.295 329.265 243.754 327.876C242.359 326.618 239.639 325.066 234.714 324.299Z" fill="url(#paint17_radial_80_162)"/>
<path fill-rule="evenodd" clip-rule="evenodd" d="M358.072 273.115C358.53 280.789 358.476 289.125 357.856 297.867C340.954 295.927 316.072 289.1 292.164 274.792C252.882 251.282 238.211 207.218 234.535 187.806C233.272 181.136 237.655 174.705 244.325 173.442C250.994 172.179 257.425 176.562 258.688 183.232C261.84 199.869 274.382 235.501 304.788 253.698C324.844 265.7 345.097 271.242 358.072 273.115Z" fill="url(#paint18_linear_80_162)"/>
<path fill-rule="evenodd" clip-rule="evenodd" d="M358.072 273.115C358.53 280.789 358.476 289.125 357.856 297.867C340.954 295.927 316.072 289.1 292.164 274.792C252.882 251.282 238.211 207.218 234.535 187.806C233.272 181.136 237.655 174.705 244.325 173.442C250.994 172.179 257.425 176.562 258.688 183.232C261.84 199.869 274.382 235.501 304.788 253.698C324.844 265.7 345.097 271.242 358.072 273.115Z" fill="url(#paint19_radial_80_162)"/>
<path fill-rule="evenodd" clip-rule="evenodd" d="M358.072 273.115C358.53 280.789 358.476 289.125 357.856 297.867C340.954 295.927 316.072 289.1 292.164 274.792C252.882 251.282 238.211 207.218 234.535 187.806C233.272 181.136 237.655 174.705 244.325 173.442C250.994 172.179 257.425 176.562 258.688 183.232C261.84 199.869 274.382 235.501 304.788 253.698C324.844 265.7 345.097 271.242 358.072 273.115Z" fill="url(#paint20_radial_80_162)"/>
<path fill-rule="evenodd" clip-rule="evenodd" d="M358.072 273.115C358.53 280.789 358.476 289.125 357.856 297.867C340.954 295.927 316.072 289.1 292.164 274.792C252.882 251.282 238.211 207.218 234.535 187.806C233.272 181.136 237.655 174.705 244.325 173.442C250.994 172.179 257.425 176.562 258.688 183.232C261.84 199.869 274.382 235.501 304.788 253.698C324.844 265.7 345.097 271.242 358.072 273.115Z" fill="url(#paint21_radial_80_162)"/>
<path fill-rule="evenodd" clip-rule="evenodd" d="M244.755 387.37C241.509 393.332 243.712 400.796 249.675 404.041C255.637 407.286 263.102 405.083 266.347 399.121C271.247 390.117 278.646 378.166 291.981 368.79C303.603 360.618 320.594 353.811 346.101 353.737C348.841 346.437 351.251 338.192 353.185 329.281C319.399 328.008 295.215 336.464 277.841 348.68C259.876 361.312 250.276 377.223 244.755 387.37Z" fill="url(#paint22_radial_80_162)"/>
<path fill-rule="evenodd" clip-rule="evenodd" d="M244.755 387.37C241.509 393.332 243.712 400.796 249.675 404.041C255.637 407.286 263.102 405.083 266.347 399.121C271.247 390.117 278.646 378.166 291.981 368.79C303.603 360.618 320.594 353.811 346.101 353.737C348.841 346.437 351.251 338.192 353.185 329.281C319.399 328.008 295.215 336.464 277.841 348.68C259.876 361.312 250.276 377.223 244.755 387.37Z" fill="url(#paint23_radial_80_162)"/>
<path d="M243.686 357.048C242.101 357.337 240.449 357.481 238.736 357.461C224.468 357.298 213.052 345.355 213.653 330.393C213.723 328.668 213.944 326.95 214.316 325.243C213.243 325.447 212.166 325.671 211.088 325.913C211.131 325.863 211.174 325.815 211.217 325.767C219.304 323.639 229.55 323.871 234.715 324.332C232.987 327.104 232.389 329.472 232.322 331.144C232.133 335.825 235.448 338.739 238.949 338.779C239.086 338.781 239.221 338.778 239.355 338.771L243.686 357.048Z" fill="url(#paint24_radial_80_162)"/>
<path d="M243.686 357.048C242.101 357.337 240.449 357.481 238.736 357.461C224.468 357.298 213.052 345.355 213.653 330.393C213.723 328.668 213.944 326.95 214.316 325.243C213.243 325.447 212.166 325.671 211.088 325.913C211.131 325.863 211.174 325.815 211.217 325.767C219.304 323.639 229.55 323.871 234.715 324.332C232.987 327.104 232.389 329.472 232.322 331.144C232.133 335.825 235.448 338.739 238.949 338.779C239.086 338.781 239.221 338.778 239.355 338.771L243.686 357.048Z" fill="url(#paint25_radial_80_162)"/>
<path d="M226.615 305.163C232.438 299.728 240.22 294.754 249.958 290.504C254.686 288.44 260.192 290.601 262.255 295.33C264.319 300.058 262.159 305.564 257.431 307.628C255.255 308.577 253.261 309.536 251.435 310.496C241.147 305.583 230.921 304.514 226.615 305.163Z" fill="#44B6FF"/>
<path d="M226.615 305.163C232.438 299.728 240.22 294.754 249.958 290.504C254.686 288.44 260.192 290.601 262.255 295.33C264.319 300.058 262.159 305.564 257.431 307.628C255.255 308.577 253.261 309.536 251.435 310.496C241.147 305.583 230.921 304.514 226.615 305.163Z" fill="url(#paint26_radial_80_162)"/>
<path d="M223.917 326.566C222.329 330.663 221.488 341.108 232.635 346.505C236.375 348.316 244.463 345.652 248.337 341.289" stroke="url(#paint27_linear_80_162)" stroke-width="1.17798" stroke-linecap="round"/>
<path d="M165.71 329.423C178.696 322.169 211.749 308.847 240.076 313.602" stroke="url(#paint28_linear_80_162)" stroke-width="1.17798" stroke-linecap="round"/>
<g clip-path="url(#clip0_80_162)">
<path d="M443.975 270.063C421.578 268.658 402.511 270.933 392.385 272.984C391.673 273.128 391.145 272.316 391.559 271.718C423.521 225.454 452.041 204.123 488.613 188.933C522.877 175.202 557.799 175.432 568.542 205.6C578.629 233.924 556.037 265.522 507.419 279.633C473.649 289.435 446.347 288.438 432.585 286.58C431.613 286.448 431.197 285.294 431.84 284.553L444.115 270.394C444.224 270.269 444.14 270.074 443.975 270.063Z" fill="url(#paint29_radial_80_162)"/>
<path d="M443.975 270.063C421.578 268.658 402.511 270.933 392.385 272.984C391.673 273.128 391.145 272.316 391.559 271.718C423.521 225.454 452.041 204.123 488.613 188.933C522.877 175.202 557.799 175.432 568.542 205.6C578.629 233.924 556.037 265.522 507.419 279.633C473.649 289.435 446.347 288.438 432.585 286.58C431.613 286.448 431.197 285.294 431.84 284.553L444.115 270.394C444.224 270.269 444.14 270.074 443.975 270.063Z" fill="url(#paint30_radial_80_162)"/>
<path d="M443.975 270.063C421.578 268.658 402.511 270.933 392.385 272.984C391.673 273.128 391.145 272.316 391.559 271.718C423.521 225.454 452.041 204.123 488.613 188.933C522.877 175.202 557.799 175.432 568.542 205.6C578.629 233.924 556.037 265.522 507.419 279.633C473.649 289.435 446.347 288.438 432.585 286.58C431.613 286.448 431.197 285.294 431.84 284.553L444.115 270.394C444.224 270.269 444.14 270.074 443.975 270.063Z" fill="url(#paint31_radial_80_162)"/>
<path d="M443.975 270.063C421.578 268.658 402.511 270.933 392.385 272.984C391.673 273.128 391.145 272.316 391.559 271.718C423.521 225.454 452.041 204.123 488.613 188.933C522.877 175.202 557.799 175.432 568.542 205.6C578.629 233.924 556.037 265.522 507.419 279.633C473.649 289.435 446.347 288.438 432.585 286.58C431.613 286.448 431.197 285.294 431.84 284.553L444.115 270.394C444.224 270.269 444.14 270.074 443.975 270.063Z" fill="url(#paint32_linear_80_162)"/>
<path d="M443.975 270.063C421.578 268.658 402.511 270.933 392.385 272.984C391.673 273.128 391.145 272.316 391.559 271.718C423.521 225.454 452.041 204.123 488.613 188.933C522.877 175.202 557.799 175.432 568.542 205.6C578.629 233.924 556.037 265.522 507.419 279.633C473.649 289.435 446.347 288.438 432.585 286.58C431.613 286.448 431.197 285.294 431.84 284.553L444.115 270.394C444.224 270.269 444.14 270.074 443.975 270.063Z" fill="url(#paint33_radial_80_162)"/>
<path d="M443.975 270.063C421.578 268.658 402.511 270.933 392.385 272.984C391.673 273.128 391.145 272.316 391.559 271.718C423.521 225.454 452.041 204.123 488.613 188.933C522.877 175.202 557.799 175.432 568.542 205.6C578.629 233.924 556.037 265.522 507.419 279.633C473.649 289.435 446.347 288.438 432.585 286.58C431.613 286.448 431.197 285.294 431.84 284.553L444.115 270.394C444.224 270.269 444.14 270.074 443.975 270.063Z" fill="url(#paint34_radial_80_162)"/>
<path d="M443.975 270.063C421.578 268.658 402.511 270.933 392.385 272.984C391.673 273.128 391.145 272.316 391.559 271.718C423.521 225.454 452.041 204.123 488.613 188.933C522.877 175.202 557.799 175.432 568.542 205.6C578.629 233.924 556.037 265.522 507.419 279.633C473.649 289.435 446.347 288.438 432.585 286.58C431.613 286.448 431.197 285.294 431.84 284.553L444.115 270.394C444.224 270.269 444.14 270.074 443.975 270.063Z" fill="url(#paint35_radial_80_162)"/>
<path d="M443.975 270.063C421.578 268.658 402.511 270.933 392.385 272.984C391.673 273.128 391.145 272.316 391.559 271.718C423.521 225.454 452.041 204.123 488.613 188.933C522.877 175.202 557.799 175.432 568.542 205.6C578.629 233.924 556.037 265.522 507.419 279.633C473.649 289.435 446.347 288.438 432.585 286.58C431.613 286.448 431.197 285.294 431.84 284.553L444.115 270.394C444.224 270.269 444.14 270.074 443.975 270.063Z" fill="url(#paint36_radial_80_162)"/>
<path d="M443.975 270.063C421.578 268.658 402.511 270.933 392.385 272.984C391.673 273.128 391.145 272.316 391.559 271.718C423.521 225.454 452.041 204.123 488.613 188.933C522.877 175.202 557.799 175.432 568.542 205.6C578.629 233.924 556.037 265.522 507.419 279.633C473.649 289.435 446.347 288.438 432.585 286.58C431.613 286.448 431.197 285.294 431.84 284.553L444.115 270.394C444.224 270.269 444.14 270.074 443.975 270.063Z" fill="url(#paint37_radial_80_162)"/>
<path d="M443.975 270.063C421.578 268.658 402.511 270.933 392.385 272.984C391.673 273.128 391.145 272.316 391.559 271.718C423.521 225.454 452.041 204.123 488.613 188.933C522.877 175.202 557.799 175.432 568.542 205.6C578.629 233.924 556.037 265.522 507.419 279.633C473.649 289.435 446.347 288.438 432.585 286.58C431.613 286.448 431.197 285.294 431.84 284.553L444.115 270.394C444.224 270.269 444.14 270.074 443.975 270.063Z" fill="url(#paint38_radial_80_162)"/>
<path d="M443.975 270.063C421.578 268.658 402.511 270.933 392.385 272.984C391.673 273.128 391.145 272.316 391.559 271.718C423.521 225.454 452.041 204.123 488.613 188.933C522.877 175.202 557.799 175.432 568.542 205.6C578.629 233.924 556.037 265.522 507.419 279.633C473.649 289.435 446.347 288.438 432.585 286.58C431.613 286.448 431.197 285.294 431.84 284.553L444.115 270.394C444.224 270.269 444.14 270.074 443.975 270.063Z" fill="url(#paint39_radial_80_162)"/>
<path d="M443.975 270.063C421.578 268.658 402.511 270.933 392.385 272.984C391.673 273.128 391.145 272.316 391.559 271.718C423.521 225.454 452.041 204.123 488.613 188.933C522.877 175.202 557.799 175.432 568.542 205.6C578.629 233.924 556.037 265.522 507.419 279.633C473.649 289.435 446.347 288.438 432.585 286.58C431.613 286.448 431.197 285.294 431.84 284.553L444.115 270.394C444.224 270.269 444.14 270.074 443.975 270.063Z" fill="url(#paint40_radial_80_162)"/>
<path d="M443.975 270.063C421.578 268.658 402.511 270.933 392.385 272.984C391.673 273.128 391.145 272.316 391.559 271.718C423.521 225.454 452.041 204.123 488.613 188.933C522.877 175.202 557.799 175.432 568.542 205.6C578.629 233.924 556.037 265.522 507.419 279.633C473.649 289.435 446.347 288.438 432.585 286.58C431.613 286.448 431.197 285.294 431.84 284.553L444.115 270.394C444.224 270.269 444.14 270.074 443.975 270.063Z" fill="url(#paint41_radial_80_162)"/>
<path d="M443.975 270.063C421.578 268.658 402.511 270.933 392.385 272.984C391.673 273.128 391.145 272.316 391.559 271.718C423.521 225.454 452.041 204.123 488.613 188.933C522.877 175.202 557.799 175.432 568.542 205.6C578.629 233.924 556.037 265.522 507.419 279.633C473.649 289.435 446.347 288.438 432.585 286.58C431.613 286.448 431.197 285.294 431.84 284.553L444.115 270.394C444.224 270.269 444.14 270.074 443.975 270.063Z" fill="url(#paint42_radial_80_162)" fill-opacity="0.2"/>
<path d="M443.975 270.063C421.578 268.658 402.511 270.933 392.385 272.984C391.673 273.128 391.145 272.316 391.559 271.718C423.521 225.454 452.041 204.123 488.613 188.933C522.877 175.202 557.799 175.432 568.542 205.6C578.629 233.924 556.037 265.522 507.419 279.633C473.649 289.435 446.347 288.438 432.585 286.58C431.613 286.448 431.197 285.294 431.84 284.553L444.115 270.394C444.224 270.269 444.14 270.074 443.975 270.063Z" fill="url(#paint43_radial_80_162)"/>
<path d="M443.975 270.063C421.578 268.658 402.511 270.933 392.385 272.984C391.673 273.128 391.145 272.316 391.559 271.718C423.521 225.454 452.041 204.123 488.613 188.933C522.877 175.202 557.799 175.432 568.542 205.6C578.629 233.924 556.037 265.522 507.419 279.633C473.649 289.435 446.347 288.438 432.585 286.58C431.613 286.448 431.197 285.294 431.84 284.553L444.115 270.394C444.224 270.269 444.14 270.074 443.975 270.063Z" fill="url(#paint44_radial_80_162)"/>
<path d="M443.975 270.063C421.578 268.658 402.511 270.933 392.385 272.984C391.673 273.128 391.145 272.316 391.559 271.718C423.521 225.454 452.041 204.123 488.613 188.933C522.877 175.202 557.799 175.432 568.542 205.6C578.629 233.924 556.037 265.522 507.419 279.633C473.649 289.435 446.347 288.438 432.585 286.58C431.613 286.448 431.197 285.294 431.84 284.553L444.115 270.394C444.224 270.269 444.14 270.074 443.975 270.063Z" fill="url(#paint45_radial_80_162)"/>
<path d="M443.975 270.063C421.578 268.658 402.511 270.933 392.385 272.984C391.673 273.128 391.145 272.316 391.559 271.718C423.521 225.454 452.041 204.123 488.613 188.933C522.877 175.202 557.799 175.432 568.542 205.6C578.629 233.924 556.037 265.522 507.419 279.633C473.649 289.435 446.347 288.438 432.585 286.58C431.613 286.448 431.197 285.294 431.84 284.553L444.115 270.394C444.224 270.269 444.14 270.074 443.975 270.063Z" fill="url(#paint46_radial_80_162)"/>
<path d="M443.975 270.063C421.578 268.658 402.511 270.933 392.385 272.984C391.673 273.128 391.145 272.316 391.559 271.718C423.521 225.454 452.041 204.123 488.613 188.933C522.877 175.202 557.799 175.432 568.542 205.6C578.629 233.924 556.037 265.522 507.419 279.633C473.649 289.435 446.347 288.438 432.585 286.58C431.613 286.448 431.197 285.294 431.84 284.553L444.115 270.394C444.224 270.269 444.14 270.074 443.975 270.063Z" fill="url(#paint47_radial_80_162)" fill-opacity="0.3"/>
<path d="M443.975 270.063C421.578 268.658 402.511 270.933 392.385 272.984C391.673 273.128 391.145 272.316 391.559 271.718C423.521 225.454 452.041 204.123 488.613 188.933C522.877 175.202 557.799 175.432 568.542 205.6C578.629 233.924 556.037 265.522 507.419 279.633C473.649 289.435 446.347 288.438 432.585 286.58C431.613 286.448 431.197 285.294 431.84 284.553L444.115 270.394C444.224 270.269 444.14 270.074 443.975 270.063Z" fill="url(#paint48_radial_80_162)" fill-opacity="0.4"/>
<path d="M443.975 270.063C421.578 268.658 402.511 270.933 392.385 272.984C391.673 273.128 391.145 272.316 391.559 271.718C423.521 225.454 452.041 204.123 488.613 188.933C522.877 175.202 557.799 175.432 568.542 205.6C578.629 233.924 556.037 265.522 507.419 279.633C473.649 289.435 446.347 288.438 432.585 286.58C431.613 286.448 431.197 285.294 431.84 284.553L444.115 270.394C444.224 270.269 444.14 270.074 443.975 270.063Z" fill="url(#paint49_radial_80_162)"/>
<path d="M443.975 270.063C421.578 268.658 402.511 270.933 392.385 272.984C391.673 273.128 391.145 272.316 391.559 271.718C423.521 225.454 452.041 204.123 488.613 188.933C522.877 175.202 557.799 175.432 568.542 205.6C578.629 233.924 556.037 265.522 507.419 279.633C473.649 289.435 446.347 288.438 432.585 286.58C431.613 286.448 431.197 285.294 431.84 284.553L444.115 270.394C444.224 270.269 444.14 270.074 443.975 270.063Z" fill="url(#paint50_radial_80_162)"/>
<path d="M443.975 270.063C421.578 268.658 402.511 270.933 392.385 272.984C391.673 273.128 391.145 272.316 391.559 271.718C423.521 225.454 452.041 204.123 488.613 188.933C522.877 175.202 557.799 175.432 568.542 205.6C578.629 233.924 556.037 265.522 507.419 279.633C473.649 289.435 446.347 288.438 432.585 286.58C431.613 286.448 431.197 285.294 431.84 284.553L444.115 270.394C444.224 270.269 444.14 270.074 443.975 270.063Z" fill="url(#paint51_radial_80_162)"/>
<path d="M443.975 270.063C421.578 268.658 402.511 270.933 392.385 272.984C391.673 273.128 391.145 272.316 391.559 271.718C423.521 225.454 452.041 204.123 488.613 188.933C522.877 175.202 557.799 175.432 568.542 205.6C578.629 233.924 556.037 265.522 507.419 279.633C473.649 289.435 446.347 288.438 432.585 286.58C431.613 286.448 431.197 285.294 431.84 284.553L444.115 270.394C444.224 270.269 444.14 270.074 443.975 270.063Z" fill="url(#paint52_radial_80_162)" fill-opacity="0.8"/>
<path d="M443.975 270.063C421.578 268.658 402.511 270.933 392.385 272.984C391.673 273.128 391.145 272.316 391.559 271.718C423.521 225.454 452.041 204.123 488.613 188.933C522.877 175.202 557.799 175.432 568.542 205.6C578.629 233.924 556.037 265.522 507.419 279.633C473.649 289.435 446.347 288.438 432.585 286.58C431.613 286.448 431.197 285.294 431.84 284.553L444.115 270.394C444.224 270.269 444.14 270.074 443.975 270.063Z" fill="url(#paint53_radial_80_162)" fill-opacity="0.2"/>
<path d="M443.975 270.063C421.578 268.658 402.511 270.933 392.385 272.984C391.673 273.128 391.145 272.316 391.559 271.718C423.521 225.454 452.041 204.123 488.613 188.933C522.877 175.202 557.799 175.432 568.542 205.6C578.629 233.924 556.037 265.522 507.419 279.633C473.649 289.435 446.347 288.438 432.585 286.58C431.613 286.448 431.197 285.294 431.84 284.553L444.115 270.394C444.224 270.269 444.14 270.074 443.975 270.063Z" fill="url(#paint54_radial_80_162)" fill-opacity="0.2"/>
<path d="M443.975 270.063C421.578 268.658 402.511 270.933 392.385 272.984C391.673 273.128 391.145 272.316 391.559 271.718C423.521 225.454 452.041 204.123 488.613 188.933C522.877 175.202 557.799 175.432 568.542 205.6C578.629 233.924 556.037 265.522 507.419 279.633C473.649 289.435 446.347 288.438 432.585 286.58C431.613 286.448 431.197 285.294 431.84 284.553L444.115 270.394C444.224 270.269 444.14 270.074 443.975 270.063Z" fill="url(#paint55_radial_80_162)"/>
<path d="M443.975 270.063C421.578 268.658 402.511 270.933 392.385 272.984C391.673 273.128 391.145 272.316 391.559 271.718C423.521 225.454 452.041 204.123 488.613 188.933C522.877 175.202 557.799 175.432 568.542 205.6C578.629 233.924 556.037 265.522 507.419 279.633C473.649 289.435 446.347 288.438 432.585 286.58C431.613 286.448 431.197 285.294 431.84 284.553L444.115 270.394C444.224 270.269 444.14 270.074 443.975 270.063Z" fill="url(#paint56_radial_80_162)"/>
<path d="M443.975 270.063C421.578 268.658 402.511 270.933 392.385 272.984C391.673 273.128 391.145 272.316 391.559 271.718C423.521 225.454 452.041 204.123 488.613 188.933C522.877 175.202 557.799 175.432 568.542 205.6C578.629 233.924 556.037 265.522 507.419 279.633C473.649 289.435 446.347 288.438 432.585 286.58C431.613 286.448 431.197 285.294 431.84 284.553L444.115 270.394C444.224 270.269 444.14 270.074 443.975 270.063Z" fill="url(#paint57_radial_80_162)"/>
<path d="M443.975 270.063C421.578 268.658 402.511 270.933 392.385 272.984C391.673 273.128 391.145 272.316 391.559 271.718C423.521 225.454 452.041 204.123 488.613 188.933C522.877 175.202 557.799 175.432 568.542 205.6C578.629 233.924 556.037 265.522 507.419 279.633C473.649 289.435 446.347 288.438 432.585 286.58C431.613 286.448 431.197 285.294 431.84 284.553L444.115 270.394C444.224 270.269 444.14 270.074 443.975 270.063Z" fill="url(#paint58_radial_80_162)"/>
<path d="M514.995 255.342C490.815 257.093 461.404 252.55 448.768 248.939C447.828 248.67 447.443 247.574 447.974 246.752C463.64 222.473 481.048 211.064 502.079 199.195C522.659 187.581 559.355 178.798 569.546 207.414C578.323 232.059 546.328 253.072 514.995 255.342Z" fill="url(#paint59_radial_80_162)"/>
<path d="M514.995 255.342C490.815 257.093 461.404 252.55 448.768 248.939C447.828 248.67 447.443 247.574 447.974 246.752C463.64 222.473 481.048 211.064 502.079 199.195C522.659 187.581 559.355 178.798 569.546 207.414C578.323 232.059 546.328 253.072 514.995 255.342Z" fill="url(#paint60_radial_80_162)"/>
<path d="M514.995 255.342C490.815 257.093 461.404 252.55 448.768 248.939C447.828 248.67 447.443 247.574 447.974 246.752C463.64 222.473 481.048 211.064 502.079 199.195C522.659 187.581 559.355 178.798 569.546 207.414C578.323 232.059 546.328 253.072 514.995 255.342Z" fill="url(#paint61_radial_80_162)"/>
<path d="M514.995 255.342C490.815 257.093 461.404 252.55 448.768 248.939C447.828 248.67 447.443 247.574 447.974 246.752C463.64 222.473 481.048 211.064 502.079 199.195C522.659 187.581 559.355 178.798 569.546 207.414C578.323 232.059 546.328 253.072 514.995 255.342Z" fill="url(#paint62_radial_80_162)"/>
<path d="M514.995 255.342C490.815 257.093 461.404 252.55 448.768 248.939C447.828 248.67 447.443 247.574 447.974 246.752C463.64 222.473 481.048 211.064 502.079 199.195C522.659 187.581 559.355 178.798 569.546 207.414C578.323 232.059 546.328 253.072 514.995 255.342Z" fill="url(#paint63_linear_80_162)"/>
<path d="M514.995 255.342C490.815 257.093 461.404 252.55 448.768 248.939C447.828 248.67 447.443 247.574 447.974 246.752C463.64 222.473 481.048 211.064 502.079 199.195C522.659 187.581 559.355 178.798 569.546 207.414C578.323 232.059 546.328 253.072 514.995 255.342Z" fill="url(#paint64_radial_80_162)"/>
<path d="M514.995 255.342C490.815 257.093 461.404 252.55 448.768 248.939C447.828 248.67 447.443 247.574 447.974 246.752C463.64 222.473 481.048 211.064 502.079 199.195C522.659 187.581 559.355 178.798 569.546 207.414C578.323 232.059 546.328 253.072 514.995 255.342Z" fill="url(#paint65_radial_80_162)"/>
<path d="M514.995 255.342C490.815 257.093 461.404 252.55 448.768 248.939C447.828 248.67 447.443 247.574 447.974 246.752C463.64 222.473 481.048 211.064 502.079 199.195C522.659 187.581 559.355 178.798 569.546 207.414C578.323 232.059 546.328 253.072 514.995 255.342Z" fill="url(#paint66_radial_80_162)" fill-opacity="0.7"/>
</g>
<path fill-rule="evenodd" clip-rule="evenodd" d="M753.593 179.002C751.911 174.709 754.028 169.866 758.32 168.185C767.541 164.573 790.729 158.11 811.468 174.802C815.06 177.693 815.628 182.948 812.737 186.539C809.846 190.13 804.592 190.698 801 187.808C787.514 176.952 772.06 180.733 764.411 183.73C760.118 185.411 755.275 183.295 753.593 179.002Z" fill="#FC28A2"/>
<path fill-rule="evenodd" clip-rule="evenodd" d="M753.593 179.002C751.911 174.709 754.028 169.866 758.32 168.185C767.541 164.573 790.729 158.11 811.468 174.802C815.06 177.693 815.628 182.948 812.737 186.539C809.846 190.13 804.592 190.698 801 187.808C787.514 176.952 772.06 180.733 764.411 183.73C760.118 185.411 755.275 183.295 753.593 179.002Z" fill="url(#paint67_linear_80_162)"/>
<path fill-rule="evenodd" clip-rule="evenodd" d="M684.157 79.0828C685.793 75.2696 690.211 73.5049 694.024 75.141C709.516 81.7891 720.998 91.6352 727.378 101.572C727.866 101.693 728.344 101.821 728.81 101.953C733.897 103.395 738.641 105.708 741.512 107.985C744.763 110.563 745.308 115.288 742.73 118.54C740.372 121.512 736.221 122.222 733.042 120.352C732.979 121.102 732.873 121.846 732.721 122.586C731.418 128.946 726.96 133.649 720.432 135.559C715.031 137.14 709.77 136.638 705.46 133.963C701.28 131.368 698.818 127.237 697.873 123.076C696.152 115.513 699.23 105.929 708.441 102.143C703.532 97.3835 696.754 92.6637 688.098 88.9498C684.286 87.3128 682.521 82.8952 684.157 79.0828ZM713.384 121.196C710.202 118.371 714.148 114.49 717.527 115.43C720.432 119.415 716.398 123.589 713.384 121.196Z" fill="url(#paint68_linear_80_162)"/>
<path fill-rule="evenodd" clip-rule="evenodd" d="M684.157 79.0828C685.793 75.2696 690.211 73.5049 694.024 75.141C709.516 81.7891 720.998 91.6352 727.378 101.572C727.866 101.693 728.344 101.821 728.81 101.953C733.897 103.395 738.641 105.708 741.512 107.985C744.763 110.563 745.308 115.288 742.73 118.54C740.372 121.512 736.221 122.222 733.042 120.352C732.979 121.102 732.873 121.846 732.721 122.586C731.418 128.946 726.96 133.649 720.432 135.559C715.031 137.14 709.77 136.638 705.46 133.963C701.28 131.368 698.818 127.237 697.873 123.076C696.152 115.513 699.23 105.929 708.441 102.143C703.532 97.3835 696.754 92.6637 688.098 88.9498C684.286 87.3128 682.521 82.8952 684.157 79.0828ZM713.384 121.196C710.202 118.371 714.148 114.49 717.527 115.43C720.432 119.415 716.398 123.589 713.384 121.196Z" fill="url(#paint69_linear_80_162)"/>
<path fill-rule="evenodd" clip-rule="evenodd" d="M684.157 79.0828C685.793 75.2696 690.211 73.5049 694.024 75.141C709.516 81.7891 720.998 91.6352 727.378 101.572C727.866 101.693 728.344 101.821 728.81 101.953C733.897 103.395 738.641 105.708 741.512 107.985C744.763 110.563 745.308 115.288 742.73 118.54C740.372 121.512 736.221 122.222 733.042 120.352C732.979 121.102 732.873 121.846 732.721 122.586C731.418 128.946 726.96 133.649 720.432 135.559C715.031 137.14 709.77 136.638 705.46 133.963C701.28 131.368 698.818 127.237 697.873 123.076C696.152 115.513 699.23 105.929 708.441 102.143C703.532 97.3835 696.754 92.6637 688.098 88.9498C684.286 87.3128 682.521 82.8952 684.157 79.0828ZM713.384 121.196C710.202 118.371 714.148 114.49 717.527 115.43C720.432 119.415 716.398 123.589 713.384 121.196Z" fill="url(#paint70_radial_80_162)"/>
<path fill-rule="evenodd" clip-rule="evenodd" d="M684.157 79.0828C685.793 75.2696 690.211 73.5049 694.024 75.141C709.516 81.7891 720.998 91.6352 727.378 101.572C727.866 101.693 728.344 101.821 728.81 101.953C733.897 103.395 738.641 105.708 741.512 107.985C744.763 110.563 745.308 115.288 742.73 118.54C740.372 121.512 736.221 122.222 733.042 120.352C732.979 121.102 732.873 121.846 732.721 122.586C731.418 128.946 726.96 133.649 720.432 135.559C715.031 137.14 709.77 136.638 705.46 133.963C701.28 131.368 698.818 127.237 697.873 123.076C696.152 115.513 699.23 105.929 708.441 102.143C703.532 97.3835 696.754 92.6637 688.098 88.9498C684.286 87.3128 682.521 82.8952 684.157 79.0828ZM713.384 121.196C710.202 118.371 714.148 114.49 717.527 115.43C720.432 119.415 716.398 123.589 713.384 121.196Z" fill="url(#paint71_radial_80_162)"/>
<path d="M811.973 136.697C811.973 132.519 808.586 129.132 804.408 129.132C800.23 129.132 796.843 132.519 796.843 136.697C796.843 140.875 800.23 144.262 804.408 144.262C808.586 144.262 811.973 140.875 811.973 136.697Z" fill="url(#paint72_radial_80_162)"/>
<path d="M778.322 111.784C778.322 107.606 774.935 104.219 770.757 104.219C766.578 104.219 763.191 107.606 763.191 111.784C763.191 115.962 766.578 119.349 770.757 119.349C774.935 119.349 778.322 115.962 778.322 111.784Z" fill="url(#paint73_radial_80_162)"/>
<path d="M803.365 78.9143C803.365 74.7362 799.978 71.3491 795.799 71.3491C791.621 71.3491 788.234 74.7362 788.234 78.9143C788.234 83.0924 791.621 86.4794 795.799 86.4794C799.978 86.4794 803.365 83.0924 803.365 78.9143Z" fill="url(#paint74_radial_80_162)"/>
<path d="M744.334 170.023C744.334 166.259 741.283 163.208 737.519 163.208C733.755 163.208 730.704 166.259 730.704 170.023C730.704 173.787 733.755 176.838 737.519 176.838C741.283 176.838 744.334 173.787 744.334 170.023Z" fill="url(#paint75_radial_80_162)"/>
<path d="M793.451 195.172C793.451 191.764 790.688 189.001 787.28 189.001C783.871 189.001 781.108 191.764 781.108 195.172C781.108 198.581 783.871 201.344 787.28 201.344C790.688 201.344 793.451 198.581 793.451 195.172Z" fill="url(#paint76_radial_80_162)"/>
<path d="M793.451 195.172C793.451 191.764 790.688 189.001 787.28 189.001C783.871 189.001 781.108 191.764 781.108 195.172C781.108 198.581 783.871 201.344 787.28 201.344C790.688 201.344 793.451 198.581 793.451 195.172Z" fill="url(#paint77_radial_80_162)"/>
<path d="M704.354 217.431C699.619 214.047 694.792 210.03 690.078 205.469C693.044 204.015 696.324 202.599 699.793 201.301C709.423 197.698 721.424 194.652 733.949 194.223C748.425 193.726 761.536 198.519 771.852 204.471C782.14 210.406 790.198 217.808 794.724 223.401C797.624 226.985 797.068 232.242 793.485 235.142C789.9 238.041 784.645 237.487 781.745 233.903C778.531 229.931 772.054 223.862 763.509 218.932C754.992 214.018 744.973 210.55 734.521 210.908C724.22 211.261 714.025 213.802 705.644 216.938C705.207 217.102 704.776 217.266 704.354 217.431Z" fill="#24A4DC"/>
<path d="M704.354 217.431C699.619 214.047 694.792 210.03 690.078 205.469C693.044 204.015 696.324 202.599 699.793 201.301C709.423 197.698 721.424 194.652 733.949 194.223C748.425 193.726 761.536 198.519 771.852 204.471C782.14 210.406 790.198 217.808 794.724 223.401C797.624 226.985 797.068 232.242 793.485 235.142C789.9 238.041 784.645 237.487 781.745 233.903C778.531 229.931 772.054 223.862 763.509 218.932C754.992 214.018 744.973 210.55 734.521 210.908C724.22 211.261 714.025 213.802 705.644 216.938C705.207 217.102 704.776 217.266 704.354 217.431Z" fill="url(#paint78_linear_80_162)"/>
<path d="M704.354 217.431C699.619 214.047 694.792 210.03 690.078 205.469C693.044 204.015 696.324 202.599 699.793 201.301C709.423 197.698 721.424 194.652 733.949 194.223C748.425 193.726 761.536 198.519 771.852 204.471C782.14 210.406 790.198 217.808 794.724 223.401C797.624 226.985 797.068 232.242 793.485 235.142C789.9 238.041 784.645 237.487 781.745 233.903C778.531 229.931 772.054 223.862 763.509 218.932C754.992 214.018 744.973 210.55 734.521 210.908C724.22 211.261 714.025 213.802 705.644 216.938C705.207 217.102 704.776 217.266 704.354 217.431Z" fill="url(#paint79_radial_80_162)"/>
<path d="M704.354 217.431C699.619 214.047 694.792 210.03 690.078 205.469C693.044 204.015 696.324 202.599 699.793 201.301C709.423 197.698 721.424 194.652 733.949 194.223C748.425 193.726 761.536 198.519 771.852 204.471C782.14 210.406 790.198 217.808 794.724 223.401C797.624 226.985 797.068 232.242 793.485 235.142C789.9 238.041 784.645 237.487 781.745 233.903C778.531 229.931 772.054 223.862 763.509 218.932C754.992 214.018 744.973 210.55 734.521 210.908C724.22 211.261 714.025 213.802 705.644 216.938C705.207 217.102 704.776 217.266 704.354 217.431Z" fill="url(#paint80_radial_80_162)"/>
<path d="M688.521 203.937C688.498 203.915 688.476 203.892 688.453 203.87C684.166 199.582 680.325 195.181 677 190.822C679.83 189.61 683.519 187.893 687.313 185.863C692.559 183.055 697.479 179.927 700.667 176.991C702.691 175.127 702.964 173.502 702.915 168.357L702.907 167.687C702.844 162.812 702.736 154.56 709.813 147.617C716.72 140.588 724.665 140.823 729.529 140.965C730.151 140.984 730.723 141.001 731.235 141.001H749.082C750.199 141.001 751.27 140.553 752.054 139.757L757.246 134.489C760.481 131.206 765.767 131.167 769.051 134.403C772.334 137.64 772.373 142.925 769.137 146.209C764.021 151.973 757.669 157.811 747.46 157.652L731.235 157.697C730.446 157.697 729.683 157.683 729.01 157.672L728.942 157.672C728.227 157.659 727.619 157.65 727.038 157.652C725.87 157.655 725.079 157.707 724.455 157.811C723.544 157.963 722.784 158.227 721.694 159.346L721.614 159.429L721.532 159.509C719.77 161.221 719.557 162.704 719.61 168.198L719.613 168.434C719.663 173.587 719.748 182.115 711.978 189.271C707.235 193.639 700.851 197.554 695.189 200.583C692.895 201.811 690.632 202.939 688.521 203.937Z" fill="#FA3F99"/>
<path d="M688.521 203.937C688.498 203.915 688.476 203.892 688.453 203.87C684.166 199.582 680.325 195.181 677 190.822C679.83 189.61 683.519 187.893 687.313 185.863C692.559 183.055 697.479 179.927 700.667 176.991C702.691 175.127 702.964 173.502 702.915 168.357L702.907 167.687C702.844 162.812 702.736 154.56 709.813 147.617C716.72 140.588 724.665 140.823 729.529 140.965C730.151 140.984 730.723 141.001 731.235 141.001H749.082C750.199 141.001 751.27 140.553 752.054 139.757L757.246 134.489C760.481 131.206 765.767 131.167 769.051 134.403C772.334 137.64 772.373 142.925 769.137 146.209C764.021 151.973 757.669 157.811 747.46 157.652L731.235 157.697C730.446 157.697 729.683 157.683 729.01 157.672L728.942 157.672C728.227 157.659 727.619 157.65 727.038 157.652C725.87 157.655 725.079 157.707 724.455 157.811C723.544 157.963 722.784 158.227 721.694 159.346L721.614 159.429L721.532 159.509C719.77 161.221 719.557 162.704 719.61 168.198L719.613 168.434C719.663 173.587 719.748 182.115 711.978 189.271C707.235 193.639 700.851 197.554 695.189 200.583C692.895 201.811 690.632 202.939 688.521 203.937Z" fill="url(#paint81_radial_80_162)"/>
<path d="M688.521 203.937C688.498 203.915 688.476 203.892 688.453 203.87C684.166 199.582 680.325 195.181 677 190.822C679.83 189.61 683.519 187.893 687.313 185.863C692.559 183.055 697.479 179.927 700.667 176.991C702.691 175.127 702.964 173.502 702.915 168.357L702.907 167.687C702.844 162.812 702.736 154.56 709.813 147.617C716.72 140.588 724.665 140.823 729.529 140.965C730.151 140.984 730.723 141.001 731.235 141.001H749.082C750.199 141.001 751.27 140.553 752.054 139.757L757.246 134.489C760.481 131.206 765.767 131.167 769.051 134.403C772.334 137.64 772.373 142.925 769.137 146.209C764.021 151.973 757.669 157.811 747.46 157.652L731.235 157.697C730.446 157.697 729.683 157.683 729.01 157.672L728.942 157.672C728.227 157.659 727.619 157.65 727.038 157.652C725.87 157.655 725.079 157.707 724.455 157.811C723.544 157.963 722.784 158.227 721.694 159.346L721.614 159.429L721.532 159.509C719.77 161.221 719.557 162.704 719.61 168.198L719.613 168.434C719.663 173.587 719.748 182.115 711.978 189.271C707.235 193.639 700.851 197.554 695.189 200.583C692.895 201.811 690.632 202.939 688.521 203.937Z" fill="url(#paint82_radial_80_162)"/>
<path d="M688.521 203.937C688.498 203.915 688.476 203.892 688.453 203.87C684.166 199.582 680.325 195.181 677 190.822C679.83 189.61 683.519 187.893 687.313 185.863C692.559 183.055 697.479 179.927 700.667 176.991C702.691 175.127 702.964 173.502 702.915 168.357L702.907 167.687C702.844 162.812 702.736 154.56 709.813 147.617C716.72 140.588 724.665 140.823 729.529 140.965C730.151 140.984 730.723 141.001 731.235 141.001H749.082C750.199 141.001 751.27 140.553 752.054 139.757L757.246 134.489C760.481 131.206 765.767 131.167 769.051 134.403C772.334 137.64 772.373 142.925 769.137 146.209C764.021 151.973 757.669 157.811 747.46 157.652L731.235 157.697C730.446 157.697 729.683 157.683 729.01 157.672L728.942 157.672C728.227 157.659 727.619 157.65 727.038 157.652C725.87 157.655 725.079 157.707 724.455 157.811C723.544 157.963 722.784 158.227 721.694 159.346L721.614 159.429L721.532 159.509C719.77 161.221 719.557 162.704 719.61 168.198L719.613 168.434C719.663 173.587 719.748 182.115 711.978 189.271C707.235 193.639 700.851 197.554 695.189 200.583C692.895 201.811 690.632 202.939 688.521 203.937Z" fill="url(#paint83_radial_80_162)"/>
<path d="M735.287 147.395H749.298C752.534 147.395 755.645 146.142 757.977 143.899L762.205 139.833" stroke="#FF5CAC" stroke-width="1.20031" stroke-linecap="round"/>
<path d="M701.897 58.0316C707.312 54.0172 712.377 50.724 717.312 48.4584C723.229 52.1122 730.607 55.4505 738.231 57.0657C751.014 59.7746 765.197 57.9506 778.467 45.3047C781.804 42.1242 787.088 42.2511 790.269 45.5885C793.449 48.9259 793.322 54.21 789.985 57.3905C772.159 74.3781 752.125 77.076 734.77 73.398C721.756 70.6408 710.256 64.3391 701.897 58.0316Z" fill="#2BBAFE"/>
<path d="M701.897 58.0316C707.312 54.0172 712.377 50.724 717.312 48.4584C723.229 52.1122 730.607 55.4505 738.231 57.0657C751.014 59.7746 765.197 57.9506 778.467 45.3047C781.804 42.1242 787.088 42.2511 790.269 45.5885C793.449 48.9259 793.322 54.21 789.985 57.3905C772.159 74.3781 752.125 77.076 734.77 73.398C721.756 70.6408 710.256 64.3391 701.897 58.0316Z" fill="url(#paint84_linear_80_162)"/>
<path d="M701.897 58.0316C707.312 54.0172 712.377 50.724 717.312 48.4584C723.229 52.1122 730.607 55.4505 738.231 57.0657C751.014 59.7746 765.197 57.9506 778.467 45.3047C781.804 42.1242 787.088 42.2511 790.269 45.5885C793.449 48.9259 793.322 54.21 789.985 57.3905C772.159 74.3781 752.125 77.076 734.77 73.398C721.756 70.6408 710.256 64.3391 701.897 58.0316Z" fill="url(#paint85_radial_80_162)"/>
<path d="M725.626 57.6544C735.192 63.4369 760.113 69.7586 783.278 48.785" stroke="url(#paint86_linear_80_162)" stroke-width="1.80047" stroke-linecap="round"/>
<path d="M726.848 100.764C727.028 101.034 727.205 101.303 727.378 101.573C727.867 101.694 728.344 101.821 728.81 101.953C733.898 103.396 738.641 105.708 741.512 107.985C744.764 110.563 745.309 115.289 742.73 118.54C740.373 121.512 736.221 122.222 733.042 120.352C733.036 120.433 733.028 120.512 733.021 120.591C732.869 116.357 730.551 106.686 727.192 101.382C727.058 101.171 726.944 100.965 726.848 100.764Z" fill="#2A82D3"/>
<path d="M726.848 100.764C727.028 101.034 727.205 101.303 727.378 101.573C727.867 101.694 728.344 101.821 728.81 101.953C733.898 103.396 738.641 105.708 741.512 107.985C744.764 110.563 745.309 115.289 742.73 118.54C740.373 121.512 736.221 122.222 733.042 120.352C733.036 120.433 733.028 120.512 733.021 120.591C732.869 116.357 730.551 106.686 727.192 101.382C727.058 101.171 726.944 100.965 726.848 100.764Z" fill="url(#paint87_radial_80_162)"/>
<path d="M726.848 100.764C727.028 101.034 727.205 101.303 727.378 101.573C727.867 101.694 728.344 101.821 728.81 101.953C733.898 103.396 738.641 105.708 741.512 107.985C744.764 110.563 745.309 115.289 742.73 118.54C740.373 121.512 736.221 122.222 733.042 120.352C733.036 120.433 733.028 120.512 733.021 120.591C732.869 116.357 730.551 106.686 727.192 101.382C727.058 101.171 726.944 100.965 726.848 100.764Z" fill="url(#paint88_radial_80_162)"/>
<path d="M708.441 102.143C699.23 105.929 696.152 115.513 697.872 123.076C698.818 127.237 701.28 131.368 705.46 133.963C708.499 135.849 712.012 136.655 715.713 136.412V121.865C714.956 121.983 714.138 121.795 713.384 121.196C710.202 118.371 714.148 114.49 717.527 115.43C716.186 112.465 712.029 105.621 708.441 102.143Z" fill="url(#paint89_radial_80_162)"/>
<path d="M725.373 112.573C726.083 116.302 725.796 123.513 718.694 126.922C709.742 131.219 699.806 119.498 709.216 109.732" stroke="url(#paint90_linear_80_162)" stroke-width="1.50039" stroke-linecap="round"/>
<path d="M691.714 78.9151C697.453 81.3501 714.565 89.298 723.539 103.698" stroke="url(#paint91_linear_80_162)" stroke-width="1.50039" stroke-linecap="round"/>
<path d="M606.469 211.406C606.469 244.267 579.83 270.906 546.969 270.906C514.108 270.906 487.469 244.267 487.469 211.406C487.469 178.545 514.108 151.906 546.969 151.906C579.83 151.906 606.469 178.545 606.469 211.406Z" fill="url(#paint92_radial_80_162)"/>
<path d="M606.469 211.406C606.469 244.267 579.83 270.906 546.969 270.906C514.108 270.906 487.469 244.267 487.469 211.406C487.469 178.545 514.108 151.906 546.969 151.906C579.83 151.906 606.469 178.545 606.469 211.406Z" fill="url(#paint93_linear_80_162)"/>
<path d="M606.469 211.406C606.469 244.267 579.83 270.906 546.969 270.906C514.108 270.906 487.469 244.267 487.469 211.406C487.469 178.545 514.108 151.906 546.969 151.906C579.83 151.906 606.469 178.545 606.469 211.406Z" fill="url(#paint94_radial_80_162)"/>
<path d="M606.469 211.406C606.469 244.267 579.83 270.906 546.969 270.906C514.108 270.906 487.469 244.267 487.469 211.406C487.469 178.545 514.108 151.906 546.969 151.906C579.83 151.906 606.469 178.545 606.469 211.406Z" fill="url(#paint95_radial_80_162)"/>
<path d="M606.469 211.406C606.469 244.267 579.83 270.906 546.969 270.906C514.108 270.906 487.469 244.267 487.469 211.406C487.469 178.545 514.108 151.906 546.969 151.906C579.83 151.906 606.469 178.545 606.469 211.406Z" fill="url(#paint96_radial_80_162)"/>
<g clip-path="url(#clip1_80_162)">
<rect x="321.5" y="227.375" width="49" height="201.25" rx="3.6" fill="url(#paint97_linear_80_162)"/>
<rect x="321.5" y="227.375" width="49" height="201.25" rx="3.6" fill="url(#paint98_radial_80_162)"/>
<rect x="321.5" y="227.375" width="49" height="201.25" rx="3.6" fill="url(#paint99_radial_80_162)"/>
<rect x="321.5" y="227.375" width="49" height="201.25" rx="3.6" fill="url(#paint100_linear_80_162)"/>
<rect x="321.5" y="227.375" width="49" height="201.25" rx="3.6" fill="url(#paint101_linear_80_162)"/>
<rect x="321.5" y="227.375" width="49" height="201.25" rx="3.6" fill="url(#paint102_linear_80_162)"/>
<rect x="321.5" y="227.375" width="49" height="201.25" rx="3.6" fill="url(#paint103_linear_80_162)"/>
</g>
<g clip-path="url(#clip2_80_162)">
<rect x="675.5" y="29.75" width="49" height="206.5" rx="3.6" fill="url(#paint104_linear_80_162)"/>
<rect x="675.5" y="29.75" width="49" height="206.5" rx="3.6" fill="url(#paint105_radial_80_162)"/>
<rect x="675.5" y="29.75" width="49" height="206.5" rx="3.6" fill="url(#paint106_radial_80_162)"/>
<rect x="675.5" y="29.75" width="49" height="206.5" rx="3.6" fill="url(#paint107_linear_80_162)"/>
<rect x="675.5" y="29.75" width="49" height="206.5" rx="3.6" fill="url(#paint108_linear_80_162)"/>
<rect x="675.5" y="29.75" width="49" height="206.5" rx="3.6" fill="url(#paint109_linear_80_162)"/>
<rect x="675.5" y="29.75" width="49" height="206.5" rx="3.6" fill="url(#paint110_linear_80_162)"/>
</g>
<defs>
<radialGradient id="paint0_radial_80_162" cx="0" cy="0" r="1" gradientUnits="userSpaceOnUse" gradientTransform="translate(291.81 295.93) rotate(16.3185) scale(16.9829)">
<stop stop-color="#5AC0FF"/>
<stop offset="1" stop-color="#3279B6"/>
</radialGradient>
<radialGradient id="paint1_radial_80_162" cx="0" cy="0" r="1" gradientUnits="userSpaceOnUse" gradientTransform="translate(294.708 297.523) rotate(37.7015) scale(17.0545 18.6939)">
<stop offset="0.534713" stop-color="#3A619E" stop-opacity="0"/>
<stop offset="1" stop-color="#3A619E"/>
</radialGradient>
<radialGradient id="paint2_radial_80_162" cx="0" cy="0" r="1" gradientUnits="userSpaceOnUse" gradientTransform="translate(294.852 177.132) rotate(12.2195) scale(19.4453)">
<stop stop-color="#FDD46C"/>
<stop offset="1" stop-color="#F09C53"/>
</radialGradient>
<radialGradient id="paint3_radial_80_162" cx="0" cy="0" r="1" gradientUnits="userSpaceOnUse" gradientTransform="translate(296.468 181.615) rotate(-21.5225) scale(19.2615)">
<stop offset="0.792052" stop-color="#E76260" stop-opacity="0"/>
<stop offset="0.964251" stop-color="#E76260"/>
</radialGradient>
<radialGradient id="paint4_radial_80_162" cx="0" cy="0" r="1" gradientUnits="userSpaceOnUse" gradientTransform="translate(301.373 174.434) rotate(90.0925) scale(19.5061 22.9711)">
<stop offset="0.482355" stop-color="#AA885A" stop-opacity="0"/>
<stop offset="0.90682" stop-color="#AA885A"/>
</radialGradient>
<radialGradient id="paint5_radial_80_162" cx="0" cy="0" r="1" gradientUnits="userSpaceOnUse" gradientTransform="translate(167.62 267.534) rotate(10.0375) scale(20.2575 20.2574)">
<stop stop-color="#FF46AA"/>
<stop offset="1" stop-color="#E3189D"/>
</radialGradient>
<radialGradient id="paint6_radial_80_162" cx="0" cy="0" r="1" gradientUnits="userSpaceOnUse" gradientTransform="translate(175.187 266.859) rotate(64.3605) scale(18.4096 24.6378)">
<stop offset="0.522105" stop-color="#B63173" stop-opacity="0"/>
<stop offset="1" stop-color="#B63173"/>
</radialGradient>
<radialGradient id="paint7_radial_80_162" cx="0" cy="0" r="1" gradientUnits="userSpaceOnUse" gradientTransform="translate(210.365 402.315) rotate(17.2245) scale(18.1046)">
<stop stop-color="#FFF46F"/>
<stop offset="1" stop-color="#EFB93C"/>
</radialGradient>
<radialGradient id="paint8_radial_80_162" cx="0" cy="0" r="1" gradientUnits="userSpaceOnUse" gradientTransform="translate(214.133 402.995) rotate(59.1315) scale(18.8269 17.9255)">
<stop offset="0.558644" stop-color="#AA904B" stop-opacity="0"/>
<stop offset="0.943632" stop-color="#AA904B"/>
</radialGradient>
<radialGradient id="paint9_radial_80_162" cx="0" cy="0" r="1" gradientUnits="userSpaceOnUse" gradientTransform="translate(211.243 407.341) rotate(-20.0105) scale(20.1313 20.1313)">
<stop offset="0.771901" stop-color="#C47072" stop-opacity="0"/>
<stop offset="1" stop-color="#C47072"/>
</radialGradient>
<radialGradient id="paint10_radial_80_162" cx="0" cy="0" r="1" gradientUnits="userSpaceOnUse" gradientTransform="translate(276.122 418.74) rotate(10.0375) scale(20.2575)">
<stop stop-color="#FF46AA"/>
<stop offset="1" stop-color="#E3189D"/>
</radialGradient>
<radialGradient id="paint11_radial_80_162" cx="0" cy="0" r="1" gradientUnits="userSpaceOnUse" gradientTransform="translate(283.689 418.064) rotate(64.3605) scale(18.4096 24.6378)">
<stop offset="0.522105" stop-color="#B63173" stop-opacity="0"/>
<stop offset="1" stop-color="#B63173"/>
</radialGradient>
<radialGradient id="paint12_radial_80_162" cx="0" cy="0" r="1" gradientUnits="userSpaceOnUse" gradientTransform="translate(197.015 215.751) rotate(45.9335) scale(42.3665 15.806)">
<stop stop-color="#FF3BA9"/>
<stop offset="1" stop-color="#F422A7"/>
</radialGradient>
<radialGradient id="paint13_radial_80_162" cx="0" cy="0" r="1" gradientUnits="userSpaceOnUse" gradientTransform="translate(241.971 223.558) rotate(110.295) scale(43.6829 77.8516)">
<stop offset="0.752144" stop-color="#B8306F" stop-opacity="0"/>
<stop offset="1" stop-color="#B8306F"/>
</radialGradient>
<linearGradient id="paint14_linear_80_162" x1="160.102" y1="337.739" x2="272.915" y2="318.453" gradientUnits="userSpaceOnUse">
<stop stop-color="#20B2EE"/>
<stop offset="1" stop-color="#2689DA"/>
</linearGradient>
<radialGradient id="paint15_radial_80_162" cx="0" cy="0" r="1" gradientUnits="userSpaceOnUse" gradientTransform="translate(194.265 327.552) rotate(5.86748) scale(76.3115 46.6779)">
<stop offset="0.80204" stop-color="#4274D2" stop-opacity="0"/>
<stop offset="0.950917" stop-color="#4274D2"/>
</radialGradient>
<radialGradient id="paint16_radial_80_162" cx="0" cy="0" r="1" gradientUnits="userSpaceOnUse" gradientTransform="translate(188.841 335.506) rotate(-110.255) scale(10.9992 36.9249)">
<stop stop-color="#4D8EC0"/>
<stop offset="1" stop-color="#4D8EC0" stop-opacity="0"/>
</radialGradient>
<radialGradient id="paint17_radial_80_162" cx="0" cy="0" r="1" gradientUnits="userSpaceOnUse" gradientTransform="translate(157.048 329.817) rotate(19.6035) scale(13.462 12.1032)">
<stop stop-color="#5ADEFF"/>
<stop offset="1" stop-color="#5ADEFF" stop-opacity="0"/>
</radialGradient>
<linearGradient id="paint18_linear_80_162" x1="347.299" y1="272.853" x2="247.554" y2="179.952" gradientUnits="userSpaceOnUse">
<stop stop-color="#3797E2"/>
<stop offset="1" stop-color="#37AEFF"/>
</linearGradient>
<radialGradient id="paint19_radial_80_162" cx="0" cy="0" r="1" gradientUnits="userSpaceOnUse" gradientTransform="translate(339.416 220.114) rotate(107.812) scale(78.4687 196.698)">
<stop offset="0.622552" stop-color="#526579" stop-opacity="0"/>
<stop offset="0.962126" stop-color="#526579"/>
</radialGradient>
<radialGradient id="paint20_radial_80_162" cx="0" cy="0" r="1" gradientUnits="userSpaceOnUse" gradientTransform="translate(280.058 205.543) rotate(-27.9508) scale(26.9349 54.153)">
<stop offset="0.396078" stop-color="#6972FF"/>
<stop offset="1" stop-color="#6972FF" stop-opacity="0"/>
</radialGradient>
<radialGradient id="paint21_radial_80_162" cx="0" cy="0" r="1" gradientUnits="userSpaceOnUse" gradientTransform="translate(239.562 183.916) rotate(168.832) scale(7.38498 5.82391)">
<stop stop-color="#55BFFF"/>
<stop offset="1" stop-color="#55BFFF" stop-opacity="0"/>
</radialGradient>
<radialGradient id="paint22_radial_80_162" cx="0" cy="0" r="1" gradientUnits="userSpaceOnUse" gradientTransform="translate(239.521 383.097) rotate(-22.9266) scale(71.8984 26.9359)">
<stop stop-color="#FF3AAA"/>
<stop offset="1" stop-color="#FD2F89"/>
</radialGradient>
<radialGradient id="paint23_radial_80_162" cx="0" cy="0" r="1" gradientUnits="userSpaceOnUse" gradientTransform="translate(322.241 375.138) rotate(-91.1738) scale(47.2822 148.385)">
<stop offset="0.803698" stop-color="#DB2C6E" stop-opacity="0"/>
<stop offset="1" stop-color="#DB2C6E"/>
</radialGradient>
<radialGradient id="paint24_radial_80_162" cx="0" cy="0" r="1" gradientUnits="userSpaceOnUse" gradientTransform="translate(235.798 320.557) rotate(118.42) scale(26.9265 20.1278)">
<stop stop-color="#336BAF"/>
<stop offset="1" stop-color="#336BAF" stop-opacity="0"/>
</radialGradient>
<radialGradient id="paint25_radial_80_162" cx="0" cy="0" r="1" gradientUnits="userSpaceOnUse" gradientTransform="translate(213.948 324.037) rotate(109.993) scale(18.2416 7.39067)">
<stop stop-color="#49A4D4"/>
<stop offset="1" stop-color="#49A4D4" stop-opacity="0"/>
</radialGradient>
<radialGradient id="paint26_radial_80_162" cx="0" cy="0" r="1" gradientUnits="userSpaceOnUse" gradientTransform="translate(226.434 306.42) rotate(-27.4997) scale(25.4422 14.1597)">
<stop stop-color="#4AB5F8"/>
<stop offset="1" stop-color="#4AB5F8" stop-opacity="0"/>
</radialGradient>
<linearGradient id="paint27_linear_80_162" x1="239.599" y1="351.005" x2="219.304" y2="331.488" gradientUnits="userSpaceOnUse">
<stop stop-color="#4EAFF2"/>
<stop offset="1" stop-color="#4EAFF2" stop-opacity="0"/>
</linearGradient>
<linearGradient id="paint28_linear_80_162" x1="158.035" y1="336.831" x2="253.351" y2="321.926" gradientUnits="userSpaceOnUse">
<stop stop-color="#5BDDFF"/>
<stop offset="1" stop-color="#5BDDFF" stop-opacity="0"/>
</linearGradient>
<radialGradient id="paint29_radial_80_162" cx="0" cy="0" r="1" gradientUnits="userSpaceOnUse" gradientTransform="translate(493.655 198.538) rotate(71.1967) scale(75.0463 171.943)">
<stop stop-color="#FF953D"/>
<stop offset="1" stop-color="#FF5141"/>
</radialGradient>
<radialGradient id="paint30_radial_80_162" cx="0" cy="0" r="1" gradientUnits="userSpaceOnUse" gradientTransform="translate(488.186 263.983) rotate(102.025) scale(49.4117 109.358)">
<stop stop-color="#CE5327"/>
<stop offset="1" stop-color="#CE5327" stop-opacity="0"/>
</radialGradient>
<radialGradient id="paint31_radial_80_162" cx="0" cy="0" r="1" gradientUnits="userSpaceOnUse" gradientTransform="translate(518.871 264.629) rotate(-86.7823) scale(9.65099 48.8755)">
<stop stop-color="#F38758"/>
<stop offset="0.363071" stop-color="#F38758" stop-opacity="0.703001"/>
<stop offset="0.71349" stop-color="#F38758" stop-opacity="0.210142"/>
<stop offset="1" stop-color="#F38758" stop-opacity="0"/>
</radialGradient>
<linearGradient id="paint32_linear_80_162" x1="566.224" y1="199.09" x2="534.195" y2="210.496" gradientUnits="userSpaceOnUse">
<stop stop-color="#FF7583"/>
<stop offset="1" stop-color="#FF7583" stop-opacity="0"/>
</linearGradient>
<radialGradient id="paint33_radial_80_162" cx="0" cy="0" r="1" gradientUnits="userSpaceOnUse" gradientTransform="translate(488.222 289.198) rotate(-75.5052) scale(15.0299 155.36)">
<stop stop-color="#FFAA7B"/>
<stop offset="0.845295" stop-color="#FFAA7B" stop-opacity="0.0923529"/>
<stop offset="1" stop-color="#FFAA7B" stop-opacity="0"/>
</radialGradient>
<radialGradient id="paint34_radial_80_162" cx="0" cy="0" r="1" gradientUnits="userSpaceOnUse" gradientTransform="translate(430.675 289.412) rotate(-28.0252) scale(25.2569 21.3236)">
<stop stop-color="#FF5E47"/>
<stop offset="1" stop-color="#FF5E47" stop-opacity="0"/>
</radialGradient>
<radialGradient id="paint35_radial_80_162" cx="0" cy="0" r="1" gradientUnits="userSpaceOnUse" gradientTransform="translate(389.506 270.909) rotate(-20.9963) scale(67.5741 41.1966)">
<stop stop-color="#FF2F3C"/>
<stop offset="1" stop-color="#FF2F3C" stop-opacity="0"/>
</radialGradient>
<radialGradient id="paint36_radial_80_162" cx="0" cy="0" r="1" gradientUnits="userSpaceOnUse" gradientTransform="translate(442.388 272.338) rotate(32.4507) scale(6.1696 3.13071)">
<stop stop-color="#FFA682"/>
<stop offset="0.686162" stop-color="#FFA682" stop-opacity="0.266248"/>
<stop offset="0.821066" stop-color="#FFA682" stop-opacity="0.117186"/>
<stop offset="1" stop-color="#FFA682" stop-opacity="0"/>
</radialGradient>
<radialGradient id="paint37_radial_80_162" cx="0" cy="0" r="1" gradientUnits="userSpaceOnUse" gradientTransform="translate(442.576 272.969) rotate(-2.68104) scale(24.5024 1.77392)">
<stop stop-color="#FFA682"/>
<stop offset="0.701678" stop-color="#FFA682" stop-opacity="0.199672"/>
<stop offset="1" stop-color="#FFA682" stop-opacity="0"/>
</radialGradient>
<radialGradient id="paint38_radial_80_162" cx="0" cy="0" r="1" gradientUnits="userSpaceOnUse" gradientTransform="translate(455.306 283.826) rotate(-79.4015) scale(4.23692 26.1543)">
<stop stop-color="#FF815B"/>
<stop offset="0.24804" stop-color="#FF815B" stop-opacity="0.869521"/>
<stop offset="0.815487" stop-color="#FF815B" stop-opacity="0.150116"/>
<stop offset="1" stop-color="#FF815B" stop-opacity="0"/>
</radialGradient>
<radialGradient id="paint39_radial_80_162" cx="0" cy="0" r="1" gradientUnits="userSpaceOnUse" gradientTransform="translate(446.25 283.877) rotate(-85.4773) scale(5.05798 23.011)">
<stop stop-color="#FF815B"/>
<stop offset="0.24804" stop-color="#FF815B" stop-opacity="0.869521"/>
<stop offset="0.822875" stop-color="#FF815B" stop-opacity="0.150116"/>
<stop offset="1" stop-color="#FF815B" stop-opacity="0"/>
</radialGradient>
<radialGradient id="paint40_radial_80_162" cx="0" cy="0" r="1" gradientUnits="userSpaceOnUse" gradientTransform="translate(431.977 282.648) rotate(-13.5101) scale(7.23206 19.2447)">
<stop stop-color="#FF2F3C"/>
<stop offset="0.739036" stop-color="#FF2F3C" stop-opacity="0.119038"/>
<stop offset="1" stop-color="#FF2F3C" stop-opacity="0"/>
</radialGradient>
<radialGradient id="paint41_radial_80_162" cx="0" cy="0" r="1" gradientUnits="userSpaceOnUse" gradientTransform="translate(439.011 275.886) rotate(-9.48242) scale(38.1281 6.8769)">
<stop stop-color="#FF2F3C" stop-opacity="0.72"/>
<stop offset="0.739036" stop-color="#FF2F3C" stop-opacity="0.119038"/>
<stop offset="1" stop-color="#FF2F3C" stop-opacity="0"/>
</radialGradient>
<radialGradient id="paint42_radial_80_162" cx="0" cy="0" r="1" gradientUnits="userSpaceOnUse" gradientTransform="translate(470.889 263.434) rotate(-67.0274) scale(14.1537 72.0604)">
<stop stop-color="#CA0B4A"/>
<stop offset="0.680964" stop-color="#CA0B4A" stop-opacity="0.54"/>
<stop offset="1" stop-color="#CA0B4A" stop-opacity="0"/>
</radialGradient>
<radialGradient id="paint43_radial_80_162" cx="0" cy="0" r="1" gradientUnits="userSpaceOnUse" gradientTransform="translate(424.854 269.246) rotate(-75.824) scale(10.9028 49.785)">
<stop stop-color="#F38758"/>
<stop offset="0.363071" stop-color="#F38758" stop-opacity="0.703001"/>
<stop offset="0.71349" stop-color="#F38758" stop-opacity="0.210142"/>
<stop offset="1" stop-color="#F38758" stop-opacity="0"/>
</radialGradient>
<radialGradient id="paint44_radial_80_162" cx="0" cy="0" r="1" gradientUnits="userSpaceOnUse" gradientTransform="translate(454.972 266.978) rotate(-69.6877) scale(8.37596 35.5501)">
<stop stop-color="#F38758" stop-opacity="0.86"/>
<stop offset="0.262244" stop-color="#F38758" stop-opacity="0.703001"/>
<stop offset="0.675284" stop-color="#F38758" stop-opacity="0.210142"/>
<stop offset="0.861713" stop-color="#F38758" stop-opacity="0.0623553"/>
<stop offset="1" stop-color="#F38758" stop-opacity="0"/>
</radialGradient>
<radialGradient id="paint45_radial_80_162" cx="0" cy="0" r="1" gradientUnits="userSpaceOnUse" gradientTransform="translate(488.586 267.144) rotate(-74.6824) scale(11.9728 53.9734)">
<stop stop-color="#F38758"/>
<stop offset="0.363071" stop-color="#F38758" stop-opacity="0.703001"/>
<stop offset="0.71349" stop-color="#F38758" stop-opacity="0.210142"/>
<stop offset="1" stop-color="#F38758" stop-opacity="0"/>
</radialGradient>
<radialGradient id="paint46_radial_80_162" cx="0" cy="0" r="1" gradientUnits="userSpaceOnUse" gradientTransform="translate(525.55 241.175) rotate(99.3196) scale(27.4023 73.6023)">
<stop stop-color="#CE5327"/>
<stop offset="0.844833" stop-color="#CE5327" stop-opacity="0.434204"/>
<stop offset="0.945717" stop-color="#CE5327" stop-opacity="0.12821"/>
<stop offset="1" stop-color="#CE5327" stop-opacity="0"/>
</radialGradient>
<radialGradient id="paint47_radial_80_162" cx="0" cy="0" r="1" gradientUnits="userSpaceOnUse" gradientTransform="translate(417.803 261.186) rotate(76.2794) scale(5.13669 31.0155)">
<stop stop-color="#CE5327" stop-opacity="0.65"/>
<stop offset="0.481357" stop-color="#CE5327" stop-opacity="0.434204"/>
<stop offset="0.738276" stop-color="#CE5327" stop-opacity="0.12821"/>
<stop offset="1" stop-color="#CE5327" stop-opacity="0"/>
</radialGradient>
<radialGradient id="paint48_radial_80_162" cx="0" cy="0" r="1" gradientUnits="userSpaceOnUse" gradientTransform="translate(431.809 258.366) rotate(93.7355) scale(5.48697 30.364)">
<stop stop-color="#CE5327" stop-opacity="0.65"/>
<stop offset="0.481357" stop-color="#CE5327" stop-opacity="0.434204"/>
<stop offset="0.738276" stop-color="#CE5327" stop-opacity="0.12821"/>
<stop offset="1" stop-color="#CE5327" stop-opacity="0"/>
</radialGradient>
<radialGradient id="paint49_radial_80_162" cx="0" cy="0" r="1" gradientUnits="userSpaceOnUse" gradientTransform="translate(478.518 275.387) rotate(106.926) scale(3.61296 36.9834)">
<stop stop-color="#CE5327" stop-opacity="0.87"/>
<stop offset="0.493785" stop-color="#CE5327" stop-opacity="0.53"/>
<stop offset="0.852631" stop-color="#CE5327" stop-opacity="0.123929"/>
<stop offset="1" stop-color="#CE5327" stop-opacity="0"/>
</radialGradient>
<radialGradient id="paint50_radial_80_162" cx="0" cy="0" r="1" gradientUnits="userSpaceOnUse" gradientTransform="translate(452.22 270.578) rotate(116.199) scale(1.62866 10.8596)">
<stop stop-color="#FF5E47"/>
<stop offset="1" stop-color="#FF5E47" stop-opacity="0"/>
</radialGradient>
<radialGradient id="paint51_radial_80_162" cx="0" cy="0" r="1" gradientUnits="userSpaceOnUse" gradientTransform="translate(449.382 289.759) rotate(-69.2859) scale(6.77931 48.6518)">
<stop offset="0.25679" stop-color="#FF5E47"/>
<stop offset="0.779632" stop-color="#FF5E47" stop-opacity="0.216117"/>
<stop offset="1" stop-color="#FF5E47" stop-opacity="0"/>
</radialGradient>
<radialGradient id="paint52_radial_80_162" cx="0" cy="0" r="1" gradientUnits="userSpaceOnUse" gradientTransform="translate(444.63 270.744) rotate(104.658) scale(2.09903 12.8469)">
<stop stop-color="#FF2F3C"/>
<stop offset="0.361378" stop-color="#FF2F3C" stop-opacity="0.44772"/>
<stop offset="0.739036" stop-color="#FF2F3C" stop-opacity="0.119038"/>
<stop offset="1" stop-color="#FF2F3C" stop-opacity="0"/>
</radialGradient>
<radialGradient id="paint53_radial_80_162" cx="0" cy="0" r="1" gradientUnits="userSpaceOnUse" gradientTransform="translate(417.906 260.826) rotate(73.4498) scale(7.88903 63.2116)">
<stop stop-color="#CA0B4A"/>
<stop offset="0.680964" stop-color="#CA0B4A" stop-opacity="0.183465"/>
<stop offset="1" stop-color="#CA0B4A" stop-opacity="0"/>
</radialGradient>
<radialGradient id="paint54_radial_80_162" cx="0" cy="0" r="1" gradientUnits="userSpaceOnUse" gradientTransform="translate(401.743 266.408) rotate(70.3981) scale(4.18099 33.5545)">
<stop stop-color="#CA0B4A"/>
<stop offset="0.680964" stop-color="#CA0B4A" stop-opacity="0.183465"/>
<stop offset="1" stop-color="#CA0B4A" stop-opacity="0"/>
</radialGradient>
<radialGradient id="paint55_radial_80_162" cx="0" cy="0" r="1" gradientUnits="userSpaceOnUse" gradientTransform="translate(506.853 269.233) rotate(-77.7374) scale(3.23609 26.0212)">
<stop stop-color="#F38758"/>
<stop offset="0.277249" stop-color="#F38758" stop-opacity="0.771452"/>
<stop offset="0.585568" stop-color="#F38758" stop-opacity="0.288453"/>
<stop offset="1" stop-color="#F38758" stop-opacity="0"/>
</radialGradient>
<radialGradient id="paint56_radial_80_162" cx="0" cy="0" r="1" gradientUnits="userSpaceOnUse" gradientTransform="translate(488.288 269.19) rotate(-68.6359) scale(3.06683 22.1512)">
<stop stop-color="#F38758"/>
<stop offset="0.277249" stop-color="#F38758" stop-opacity="0.771452"/>
<stop offset="0.585568" stop-color="#F38758" stop-opacity="0.288453"/>
<stop offset="1" stop-color="#F38758" stop-opacity="0"/>
</radialGradient>
<radialGradient id="paint57_radial_80_162" cx="0" cy="0" r="1" gradientUnits="userSpaceOnUse" gradientTransform="translate(471.084 268.117) rotate(-60.3187) scale(2.97425 19.1536)">
<stop stop-color="#F38758"/>
<stop offset="0.277249" stop-color="#F38758" stop-opacity="0.771452"/>
<stop offset="0.585568" stop-color="#F38758" stop-opacity="0.288453"/>
<stop offset="1" stop-color="#F38758" stop-opacity="0"/>
</radialGradient>
<radialGradient id="paint58_radial_80_162" cx="0" cy="0" r="1" gradientUnits="userSpaceOnUse" gradientTransform="translate(494.831 250.876) rotate(110.465) scale(21.3717 54.0632)">
<stop stop-color="#CE5327"/>
<stop offset="0.638398" stop-color="#CE5327" stop-opacity="0.417024"/>
<stop offset="0.913732" stop-color="#CE5327" stop-opacity="0.123929"/>
<stop offset="1" stop-color="#CE5327" stop-opacity="0"/>
</radialGradient>
<radialGradient id="paint59_radial_80_162" cx="0" cy="0" r="1" gradientUnits="userSpaceOnUse" gradientTransform="translate(527.025 199.689) rotate(87.4919) scale(45.1344 81.2173)">
<stop stop-color="#FFDA2F"/>
<stop offset="0.352487" stop-color="#FFC634"/>
<stop offset="1" stop-color="#FF8E41"/>
</radialGradient>
<radialGradient id="paint60_radial_80_162" cx="0" cy="0" r="1" gradientUnits="userSpaceOnUse" gradientTransform="translate(517.6 209.918) rotate(78.1532) scale(45.3527 166.981)">
<stop offset="0.627719" stop-color="#D7812D" stop-opacity="0"/>
<stop offset="0.728983" stop-color="#D7812D" stop-opacity="0.137125"/>
<stop offset="0.855913" stop-color="#D7812D" stop-opacity="0.404199"/>
<stop offset="1" stop-color="#D7812D"/>
</radialGradient>
<radialGradient id="paint61_radial_80_162" cx="0" cy="0" r="1" gradientUnits="userSpaceOnUse" gradientTransform="translate(544.82 167.284) rotate(126.289) scale(112.666 123.421)">
<stop stop-color="#D7812D" stop-opacity="0"/>
<stop offset="0.688904" stop-color="#D7812D" stop-opacity="0"/>
<stop offset="0.767023" stop-color="#D7812D" stop-opacity="0.103983"/>
<stop offset="0.837368" stop-color="#D7812D" stop-opacity="0.404199"/>
<stop offset="0.951078" stop-color="#D7812D"/>
</radialGradient>
<radialGradient id="paint62_radial_80_162" cx="0" cy="0" r="1" gradientUnits="userSpaceOnUse" gradientTransform="translate(440.835 271.395) rotate(-33.7489) scale(90.8247 55.997)">
<stop offset="0.152609" stop-color="#FD5639"/>
<stop offset="0.835743" stop-color="#FE5534" stop-opacity="0.0858814"/>
<stop offset="1" stop-color="#FE5533" stop-opacity="0"/>
</radialGradient>
<linearGradient id="paint63_linear_80_162" x1="447.483" y1="249.921" x2="470.395" y2="241.761" gradientUnits="userSpaceOnUse">
<stop stop-color="#F95131"/>
<stop offset="1" stop-color="#F95131" stop-opacity="0"/>
</linearGradient>
<radialGradient id="paint64_radial_80_162" cx="0" cy="0" r="1" gradientUnits="userSpaceOnUse" gradientTransform="translate(489.388 204.794) rotate(21.5967) scale(85.5028 63.8396)">
<stop offset="0.725303" stop-color="#F18A52" stop-opacity="0"/>
<stop offset="0.816284" stop-color="#F18A52" stop-opacity="0.230883"/>
<stop offset="1" stop-color="#F18A52"/>
</radialGradient>
<radialGradient id="paint65_radial_80_162" cx="0" cy="0" r="1" gradientUnits="userSpaceOnUse" gradientTransform="translate(513.276 190.963) rotate(112.953) scale(70.2712 130.261)">
<stop stop-color="#F39D5D" stop-opacity="0"/>
<stop offset="0.928937" stop-color="#F39D5D" stop-opacity="0"/>
<stop offset="0.938719" stop-color="#F39D5D" stop-opacity="0.0581965"/>
<stop offset="0.950197" stop-color="#F39D5D" stop-opacity="0.180239"/>
<stop offset="0.983595" stop-color="#F39D5D"/>
</radialGradient>
<radialGradient id="paint66_radial_80_162" cx="0" cy="0" r="1" gradientUnits="userSpaceOnUse" gradientTransform="translate(514.027 178.485) rotate(73.2714) scale(76.7043 117.954)">
<stop stop-color="#F39D5D" stop-opacity="0"/>
<stop offset="0.939537" stop-color="#F39D5D" stop-opacity="0"/>
<stop offset="0.951154" stop-color="#F39D5D" stop-opacity="0.0581965"/>
<stop offset="0.96296" stop-color="#F39D5D" stop-opacity="0.180239"/>
<stop offset="0.980969" stop-color="#F39D5D"/>
</radialGradient>
<linearGradient id="paint67_linear_80_162" x1="746.235" y1="171.262" x2="789.539" y2="159.784" gradientUnits="userSpaceOnUse">
<stop stop-color="#C9136C"/>
<stop offset="1" stop-color="#C9136C" stop-opacity="0"/>
</linearGradient>
<linearGradient id="paint68_linear_80_162" x1="695.626" y1="86.2192" x2="744.357" y2="127.958" gradientUnits="userSpaceOnUse">
<stop offset="0.252724" stop-color="#1DA2CD"/>
<stop offset="1" stop-color="#255EB1"/>
</linearGradient>
<linearGradient id="paint69_linear_80_162" x1="689.105" y1="72.6542" x2="696.409" y2="81.2632" gradientUnits="userSpaceOnUse">
<stop stop-color="#0D8CBA"/>
<stop offset="1" stop-color="#0D8CBA" stop-opacity="0"/>
</linearGradient>
<radialGradient id="paint70_radial_80_162" cx="0" cy="0" r="1" gradientUnits="userSpaceOnUse" gradientTransform="translate(691.974 100.828) rotate(29.705) scale(46.8521 30.3565)">
<stop offset="0.835044" stop-color="#3165CF" stop-opacity="0"/>
<stop offset="1" stop-color="#3165CF"/>
</radialGradient>
<radialGradient id="paint71_radial_80_162" cx="0" cy="0" r="1" gradientUnits="userSpaceOnUse" gradientTransform="translate(718.516 87.9506) rotate(101.683) scale(53.4843 52.3291)">
<stop offset="0.807628" stop-color="#2471AD" stop-opacity="0"/>
<stop offset="0.950123" stop-color="#2471AD"/>
</radialGradient>
<radialGradient id="paint72_radial_80_162" cx="0" cy="0" r="1" gradientUnits="userSpaceOnUse" gradientTransform="translate(802.321 132.132) rotate(40.855) scale(12.7611 12.7611)">
<stop stop-color="#43C7F4"/>
<stop offset="1" stop-color="#2D64CF"/>
</radialGradient>
<radialGradient id="paint73_radial_80_162" cx="0" cy="0" r="1" gradientUnits="userSpaceOnUse" gradientTransform="translate(767.993 108.981) rotate(50.042) scale(10.7078)">
<stop stop-color="#FF48A3"/>
<stop offset="1" stop-color="#DB1D93"/>
</radialGradient>
<radialGradient id="paint74_radial_80_162" cx="0" cy="0" r="1" gradientUnits="userSpaceOnUse" gradientTransform="translate(793.778 74.2846) rotate(54.498) scale(12.0163)">
<stop stop-color="#F7C851"/>
<stop offset="1" stop-color="#D97654"/>
</radialGradient>
<radialGradient id="paint75_radial_80_162" cx="0" cy="0" r="1" gradientUnits="userSpaceOnUse" gradientTransform="translate(740.104 168.848) rotate(173.157) scale(9.85262 9.85263)">
<stop stop-color="#D48D3B"/>
<stop offset="1" stop-color="#B46518"/>
</radialGradient>
<radialGradient id="paint76_radial_80_162" cx="0" cy="0" r="1" gradientUnits="userSpaceOnUse" gradientTransform="translate(786.408 192.522) rotate(48.621) scale(7.30075)">
<stop stop-color="#F8AC4B"/>
<stop offset="1" stop-color="#E5A437"/>
</radialGradient>
<radialGradient id="paint77_radial_80_162" cx="0" cy="0" r="1" gradientUnits="userSpaceOnUse" gradientTransform="translate(788.299 196.892) rotate(-115.755) scale(8.25471)">
<stop offset="0.756841" stop-color="#EB9530" stop-opacity="0"/>
<stop offset="1" stop-color="#EB9530"/>
</radialGradient>
<linearGradient id="paint78_linear_80_162" x1="798.759" y1="234.484" x2="784.889" y2="219.426" gradientUnits="userSpaceOnUse">
<stop stop-color="#3067D9"/>
<stop offset="1" stop-color="#3067D9" stop-opacity="0"/>
</linearGradient>
<radialGradient id="paint79_radial_80_162" cx="0" cy="0" r="1" gradientUnits="userSpaceOnUse" gradientTransform="translate(729.563 234.63) rotate(-95.856) scale(44.251 94.673)">
<stop offset="0.655172" stop-color="#47CEFA" stop-opacity="0"/>
<stop offset="1" stop-color="#47CEFA"/>
</radialGradient>
<radialGradient id="paint80_radial_80_162" cx="0" cy="0" r="1" gradientUnits="userSpaceOnUse" gradientTransform="translate(706.029 220.02) rotate(-73.5596) scale(12.6018 26.7057)">
<stop stop-color="#1569A5"/>
<stop offset="1" stop-color="#1569A5" stop-opacity="0"/>
</radialGradient>
<radialGradient id="paint81_radial_80_162" cx="0" cy="0" r="1" gradientUnits="userSpaceOnUse" gradientTransform="translate(684.67 203.937) rotate(-26.0586) scale(56.0149 14.1167)">
<stop stop-color="#A80963"/>
<stop offset="1" stop-color="#A80963" stop-opacity="0"/>
</radialGradient>
<radialGradient id="paint82_radial_80_162" cx="0" cy="0" r="1" gradientUnits="userSpaceOnUse" gradientTransform="translate(707.159 135.599) rotate(2.7817) scale(53.1671 22.1591)">
<stop offset="0.198253" stop-color="#A80963"/>
<stop offset="1" stop-color="#A80963" stop-opacity="0"/>
</radialGradient>
<radialGradient id="paint83_radial_80_162" cx="0" cy="0" r="1" gradientUnits="userSpaceOnUse" gradientTransform="translate(750.108 166.45) rotate(-173.904) scale(31.3303 13.5643)">
<stop stop-color="#A80963"/>
<stop offset="1" stop-color="#A80963" stop-opacity="0"/>
</radialGradient>
<linearGradient id="paint84_linear_80_162" x1="706.062" y1="47.0886" x2="723.279" y2="58.9189" gradientUnits="userSpaceOnUse">
<stop stop-color="#184E8C"/>
<stop offset="1" stop-color="#184E8C" stop-opacity="0"/>
</linearGradient>
<radialGradient id="paint85_radial_80_162" cx="0" cy="0" r="1" gradientUnits="userSpaceOnUse" gradientTransform="translate(769.974 42.9999) rotate(74.748) scale(12.8911 42.3734)">
<stop stop-color="#4BDCFF"/>
<stop offset="1" stop-color="#4BDCFF" stop-opacity="0"/>
</radialGradient>
<linearGradient id="paint86_linear_80_162" x1="783.278" y1="48.785" x2="725.626" y2="56.03" gradientUnits="userSpaceOnUse">
<stop stop-color="#4BDAFF"/>
<stop offset="1" stop-color="#4BDAFF" stop-opacity="0"/>
</linearGradient>
<radialGradient id="paint87_radial_80_162" cx="0" cy="0" r="1" gradientUnits="userSpaceOnUse" gradientTransform="translate(728.757 111.915) rotate(-13.8287) scale(8.7312 28.6399)">
<stop offset="0.306182" stop-color="#1E58A8"/>
<stop offset="1" stop-color="#1E58A8" stop-opacity="0"/>
</radialGradient>
<radialGradient id="paint88_radial_80_162" cx="0" cy="0" r="1" gradientUnits="userSpaceOnUse" gradientTransform="translate(732.409 101.741) rotate(73.015) scale(20.5394 28.8978)">
<stop offset="0.590262" stop-color="#1E58A8" stop-opacity="0"/>
<stop offset="1" stop-color="#1E58A8"/>
</radialGradient>
<radialGradient id="paint89_radial_80_162" cx="0" cy="0" r="1" gradientUnits="userSpaceOnUse" gradientTransform="translate(719.561 111.132) rotate(177.371) scale(12.7959 10.5189)">
<stop offset="0.186923" stop-color="#3258A2"/>
<stop offset="1" stop-color="#3258A2" stop-opacity="0"/>
</radialGradient>
<linearGradient id="paint90_linear_80_162" x1="702.824" y1="120.918" x2="725.626" y2="119.298" gradientUnits="userSpaceOnUse">
<stop stop-color="#46B4E2"/>
<stop offset="1" stop-color="#46B4E2" stop-opacity="0"/>
</linearGradient>
<linearGradient id="paint91_linear_80_162" x1="691.714" y1="80.4803" x2="728.773" y2="100.014" gradientUnits="userSpaceOnUse">
<stop stop-color="#46B4E2"/>
<stop offset="1" stop-color="#46B4E2" stop-opacity="0"/>
</linearGradient>
<radialGradient id="paint92_radial_80_162" cx="0" cy="0" r="1" gradientUnits="userSpaceOnUse" gradientTransform="translate(581.73 180.594) rotate(130.168) scale(118.186)">
<stop offset="0.115849" stop-color="#4DA0DA"/>
<stop offset="0.853086" stop-color="#3557C3"/>
</radialGradient>
<linearGradient id="paint93_linear_80_162" x1="546.969" y1="151.906" x2="546.969" y2="179.531" gradientUnits="userSpaceOnUse">
<stop stop-color="#5B9CCE"/>
<stop offset="1" stop-color="#5B9CCE" stop-opacity="0"/>
</linearGradient>
<radialGradient id="paint94_radial_80_162" cx="0" cy="0" r="1" gradientUnits="userSpaceOnUse" gradientTransform="translate(583.855 189.094) rotate(136.38) scale(62.3761 67.2179)">
<stop offset="0.178657" stop-color="#62A5E9"/>
<stop offset="1" stop-color="#4579D7" stop-opacity="0"/>
</radialGradient>
<radialGradient id="paint95_radial_80_162" cx="0" cy="0" r="1" gradientUnits="userSpaceOnUse" gradientTransform="translate(566.058 211.406) rotate(180) scale(81.8125 85)">
<stop offset="0.62013" stop-color="#416AA9" stop-opacity="0"/>
<stop offset="0.951299" stop-color="#859BC6"/>
</radialGradient>
<radialGradient id="paint96_radial_80_162" cx="0" cy="0" r="1" gradientUnits="userSpaceOnUse" gradientTransform="translate(546.969 181.656) rotate(90) scale(89.25 99.1134)">
<stop offset="0.863095" stop-color="#3E4DCB" stop-opacity="0"/>
<stop offset="1" stop-color="#695FD4"/>
</radialGradient>
<linearGradient id="paint97_linear_80_162" x1="346" y1="227.375" x2="346" y2="428.625" gradientUnits="userSpaceOnUse">
<stop stop-color="#D84278"/>
<stop offset="1" stop-color="#D83954"/>
</linearGradient>
<radialGradient id="paint98_radial_80_162" cx="0" cy="0" r="1" gradientUnits="userSpaceOnUse" gradientTransform="translate(367.875 238.156) rotate(103.684) scale(18.4937 9.9297)">
<stop stop-color="#FE7AAA" stop-opacity="0.7"/>
<stop offset="1" stop-color="#FE7AAA" stop-opacity="0"/>
</radialGradient>
<radialGradient id="paint99_radial_80_162" cx="0" cy="0" r="1" gradientUnits="userSpaceOnUse" gradientTransform="translate(323.25 421.437) rotate(-74.1424) scale(22.4155 13.9271)">
<stop stop-color="#D63F58" stop-opacity="0.7"/>
<stop offset="1" stop-color="#D63F58" stop-opacity="0"/>
</radialGradient>
<linearGradient id="paint100_linear_80_162" x1="370.5" y1="328" x2="362.625" y2="328" gradientUnits="userSpaceOnUse">
<stop stop-color="#FE7AAA" stop-opacity="0"/>
<stop offset="0.479167" stop-color="#FE7AAA" stop-opacity="0.1"/>
<stop offset="1" stop-color="#FE7AAA" stop-opacity="0"/>
</linearGradient>
<linearGradient id="paint101_linear_80_162" x1="346" y1="227.375" x2="346" y2="256.125" gradientUnits="userSpaceOnUse">
<stop stop-color="#FE7AAA" stop-opacity="0"/>
<stop offset="0.479167" stop-color="#FE7AAA" stop-opacity="0.13"/>
<stop offset="1" stop-color="#FE7AAA" stop-opacity="0"/>
</linearGradient>
<linearGradient id="paint102_linear_80_162" x1="346" y1="227.375" x2="346" y2="428.625" gradientUnits="userSpaceOnUse">
<stop stop-color="#D63F76" stop-opacity="0.35"/>
<stop offset="0.058296" stop-color="#D63F76" stop-opacity="0"/>
<stop offset="0.872197" stop-color="#CE3952" stop-opacity="0"/>
<stop offset="0.939462" stop-color="#C8354E" stop-opacity="0.438597"/>
<stop offset="1" stop-color="#B62F45"/>
</linearGradient>
<linearGradient id="paint103_linear_80_162" x1="370.327" y1="326.195" x2="321.986" y2="326.195" gradientUnits="userSpaceOnUse">
<stop stop-color="#D63F76" stop-opacity="0.35"/>
<stop offset="0.058296" stop-color="#D63F76" stop-opacity="0"/>
<stop offset="0.872197" stop-color="#D63F58" stop-opacity="0"/>
<stop offset="0.939462" stop-color="#B62940" stop-opacity="0.438597"/>
<stop offset="1" stop-color="#B93249"/>
</linearGradient>
<linearGradient id="paint104_linear_80_162" x1="700" y1="29.75" x2="700" y2="236.25" gradientUnits="userSpaceOnUse">
<stop stop-color="#9765ED"/>
<stop offset="1" stop-color="#8664D9"/>
</linearGradient>
<radialGradient id="paint105_radial_80_162" cx="0" cy="0" r="1" gradientUnits="userSpaceOnUse" gradientTransform="translate(721.875 40.8125) rotate(103.349) scale(18.9495 9.94368)">
<stop stop-color="#BB8DFF" stop-opacity="0.6"/>
<stop offset="1" stop-color="#BB8DFF" stop-opacity="0"/>
</radialGradient>
<radialGradient id="paint106_radial_80_162" cx="0" cy="0" r="1" gradientUnits="userSpaceOnUse" gradientTransform="translate(677.25 228.875) rotate(-74.526) scale(22.9572 13.9532)">
<stop stop-color="#553BA8" stop-opacity="0.7"/>
<stop offset="1" stop-color="#553BA8" stop-opacity="0"/>
</radialGradient>
<linearGradient id="paint107_linear_80_162" x1="724.5" y1="133" x2="716.625" y2="133" gradientUnits="userSpaceOnUse">
<stop stop-color="#BB8DFF" stop-opacity="0"/>
<stop offset="0.479167" stop-color="#BB8DFF" stop-opacity="0.1"/>
<stop offset="1" stop-color="#BB8DFF" stop-opacity="0"/>
</linearGradient>
<linearGradient id="paint108_linear_80_162" x1="700" y1="29.75" x2="700" y2="59.25" gradientUnits="userSpaceOnUse">
<stop stop-color="#BB8DFF" stop-opacity="0"/>
<stop offset="0.479167" stop-color="#BB8DFF" stop-opacity="0.13"/>
<stop offset="1" stop-color="#BB8DFF" stop-opacity="0"/>
</linearGradient>
<linearGradient id="paint109_linear_80_162" x1="700" y1="29.75" x2="700" y2="236.25" gradientUnits="userSpaceOnUse">
<stop stop-color="#553BA8" stop-opacity="0.35"/>
<stop offset="0.058296" stop-color="#553BA8" stop-opacity="0"/>
<stop offset="0.872197" stop-color="#553BA8" stop-opacity="0"/>
<stop offset="0.939462" stop-color="#553BA8" stop-opacity="0.438597"/>
<stop offset="1" stop-color="#553BA8"/>
</linearGradient>
<linearGradient id="paint110_linear_80_162" x1="724.327" y1="131.148" x2="675.986" y2="131.148" gradientUnits="userSpaceOnUse">
<stop stop-color="#553BA8" stop-opacity="0.35"/>
<stop offset="0.058296" stop-color="#553BA8" stop-opacity="0"/>
<stop offset="0.872197" stop-color="#553BA8" stop-opacity="0"/>
<stop offset="0.939462" stop-color="#553BA8" stop-opacity="0.438597"/>
<stop offset="1" stop-color="#553BA8"/>
</linearGradient>
<clipPath id="clip0_80_162">
<rect width="140.44" height="213.389" fill="white" transform="translate(405.115 341.89) rotate(-109.602)"/>
</clipPath>
<clipPath id="clip1_80_162">
<rect width="56" height="230" fill="white" transform="translate(318 213)"/>
</clipPath>
<clipPath id="clip2_80_162">
<rect width="56" height="236" fill="white" transform="translate(672 15)"/>
</clipPath>
</defs>
</svg>
