<svg width="1096" height="480" viewBox="0 0 1096 480" fill="none" xmlns="http://www.w3.org/2000/svg">
<g clip-path="url(#clip0_65_154)">
<g clip-path="url(#clip1_65_154)">
<rect x="302.812" y="334.188" width="487.375" height="86.625" rx="3.6" fill="url(#paint0_linear_65_154)"/>
<rect x="302.812" y="334.188" width="487.375" height="86.625" rx="3.6" fill="url(#paint1_radial_65_154)"/>
<rect x="302.812" y="334.188" width="487.375" height="86.625" rx="3.6" fill="url(#paint2_radial_65_154)"/>
<rect x="302.812" y="334.188" width="487.375" height="86.625" rx="3.6" fill="url(#paint3_linear_65_154)"/>
<rect x="302.812" y="334.188" width="487.375" height="86.625" rx="3.6" fill="url(#paint4_linear_65_154)"/>
<rect x="302.812" y="334.188" width="487.375" height="86.625" rx="3.6" fill="url(#paint5_linear_65_154)"/>
<rect x="302.812" y="334.188" width="487.375" height="86.625" rx="3.6" fill="url(#paint6_linear_65_154)"/>
</g>
<path d="M856.294 261.284C862.261 268.118 872.638 268.822 879.472 262.855C886.307 256.888 887.01 246.511 881.043 239.677C875.077 232.842 864.699 232.139 857.865 238.105C851.031 244.072 850.327 254.449 856.294 261.284Z" fill="url(#paint7_radial_65_154)"/>
<path d="M856.294 261.284C862.261 268.118 872.638 268.822 879.472 262.855C886.307 256.888 887.01 246.511 881.043 239.677C875.077 232.842 864.699 232.139 857.865 238.105C851.031 244.072 850.327 254.449 856.294 261.284Z" fill="url(#paint8_radial_65_154)"/>
<path d="M873.935 424.87C879.901 431.704 890.279 432.408 897.113 426.441C903.947 420.474 904.651 410.097 898.684 403.263C892.718 396.428 882.34 395.725 875.506 401.691C868.671 407.658 867.968 418.035 873.935 424.87Z" fill="url(#paint9_radial_65_154)"/>
<path d="M873.935 424.87C879.901 431.704 890.279 432.408 897.113 426.441C903.947 420.474 904.651 410.097 898.684 403.263C892.718 396.428 882.34 395.725 875.506 401.691C868.671 407.658 867.968 418.035 873.935 424.87Z" fill="url(#paint10_radial_65_154)"/>
<path d="M873.935 424.87C879.901 431.704 890.279 432.408 897.113 426.441C903.947 420.474 904.651 410.097 898.684 403.263C892.718 396.428 882.34 395.725 875.506 401.691C868.671 407.658 867.968 418.035 873.935 424.87Z" fill="url(#paint11_radial_65_154)"/>
<path d="M1028.33 271.812C1034.3 278.647 1044.67 279.35 1051.51 273.384C1058.34 267.417 1059.04 257.04 1053.08 250.205C1047.11 243.371 1036.73 242.667 1029.9 248.634C1023.07 254.601 1022.36 264.978 1028.33 271.812Z" fill="url(#paint12_radial_65_154)"/>
<path d="M1028.33 271.812C1034.3 278.647 1044.67 279.35 1051.51 273.384C1058.34 267.417 1059.04 257.04 1053.08 250.205C1047.11 243.371 1036.73 242.667 1029.9 248.634C1023.07 254.601 1022.36 264.978 1028.33 271.812Z" fill="url(#paint13_radial_65_154)"/>
<path d="M941.645 96.777C947.611 103.611 957.989 104.315 964.823 98.3482C971.658 92.3815 972.361 82.0042 966.394 75.1698C960.428 68.3354 950.05 67.632 943.216 73.5986C936.382 79.5653 935.678 89.9426 941.645 96.777Z" fill="url(#paint14_radial_65_154)"/>
<path d="M941.645 96.777C947.611 103.611 957.989 104.315 964.823 98.3482C971.658 92.3815 972.361 82.0042 966.394 75.1698C960.428 68.3354 950.05 67.632 943.216 73.5986C936.382 79.5653 935.678 89.9426 941.645 96.777Z" fill="url(#paint15_radial_65_154)"/>
<path d="M941.645 96.777C947.611 103.611 957.989 104.315 964.823 98.3482C971.658 92.3815 972.361 82.0042 966.394 75.1698C960.428 68.3354 950.05 67.632 943.216 73.5986C936.382 79.5653 935.678 89.9426 941.645 96.777Z" fill="url(#paint16_radial_65_154)"/>
<path d="M847.409 87.2897C853.376 94.1241 863.753 94.8275 870.588 88.8608C877.422 82.8942 878.125 72.5169 872.159 65.6825C866.192 58.8481 855.815 58.1447 848.98 64.1113C842.146 70.078 841.443 80.4553 847.409 87.2897Z" fill="url(#paint17_radial_65_154)"/>
<path d="M847.409 87.2897C853.376 94.1241 863.753 94.8275 870.588 88.8608C877.422 82.8942 878.125 72.5169 872.159 65.6825C866.192 58.8481 855.815 58.1447 848.98 64.1113C842.146 70.078 841.443 80.4553 847.409 87.2897Z" fill="url(#paint18_radial_65_154)"/>
<path fill-rule="evenodd" clip-rule="evenodd" d="M1014.67 357.687C989.591 314.37 953.547 307.304 939.892 307.01C931.975 306.84 925.696 300.285 925.867 292.369C926.037 284.453 932.592 278.174 940.508 278.344C961.679 278.798 1008.25 289.379 1039.48 343.321C1043.45 350.173 1041.11 358.944 1034.26 362.912C1027.41 366.878 1018.64 364.54 1014.67 357.687Z" fill="url(#paint19_radial_65_154)"/>
<path fill-rule="evenodd" clip-rule="evenodd" d="M1014.67 357.687C989.591 314.37 953.547 307.304 939.892 307.01C931.975 306.84 925.696 300.285 925.867 292.369C926.037 284.453 932.592 278.174 940.508 278.344C961.679 278.798 1008.25 289.379 1039.48 343.321C1043.45 350.173 1041.11 358.944 1034.26 362.912C1027.41 366.878 1018.64 364.54 1014.67 357.687Z" fill="url(#paint20_radial_65_154)"/>
<path fill-rule="evenodd" clip-rule="evenodd" d="M1049.07 168.17C1053.52 173.78 1052.58 181.94 1046.97 186.394C1039.25 192.527 1025.71 201.969 1009.68 210.276C996.293 217.218 980.427 223.758 964.353 226.534C957.512 235.229 947.885 243.707 935.416 251.603C929.364 255.436 921.351 253.638 917.517 247.586C913.685 241.533 915.483 233.52 921.535 229.687C924.325 227.919 926.862 226.179 929.168 224.471C926.523 223.438 924.052 222.173 921.767 220.673C912.841 214.816 907.854 206.078 906.652 196.887C904.367 179.425 916.018 160.283 936.637 157.342C956.252 154.543 974.447 168.516 976.79 189.175C977.06 191.557 977.121 193.962 976.972 196.383C983.965 193.9 990.988 190.747 997.745 187.244C1012.12 179.794 1024.27 171.297 1030.84 166.076C1036.46 161.622 1044.61 162.559 1049.07 168.17ZM949.16 201.976C950.954 197.796 951.275 194.411 951.013 192.098C950.28 185.634 945.114 182.337 940.301 183.024C935.139 183.76 931.746 188.716 932.374 193.521C932.629 195.465 933.589 197.402 935.997 198.982C938.177 200.412 942.239 201.967 949.16 201.976Z" fill="url(#paint21_linear_65_154)"/>
<path fill-rule="evenodd" clip-rule="evenodd" d="M1049.07 168.17C1053.52 173.78 1052.58 181.94 1046.97 186.394C1039.25 192.527 1025.71 201.969 1009.68 210.276C996.293 217.218 980.427 223.758 964.353 226.534C957.512 235.229 947.885 243.707 935.416 251.603C929.364 255.436 921.351 253.638 917.517 247.586C913.685 241.533 915.483 233.52 921.535 229.687C924.325 227.919 926.862 226.179 929.168 224.471C926.523 223.438 924.052 222.173 921.767 220.673C912.841 214.816 907.854 206.078 906.652 196.887C904.367 179.425 916.018 160.283 936.637 157.342C956.252 154.543 974.447 168.516 976.79 189.175C977.06 191.557 977.121 193.962 976.972 196.383C983.965 193.9 990.988 190.747 997.745 187.244C1012.12 179.794 1024.27 171.297 1030.84 166.076C1036.46 161.622 1044.61 162.559 1049.07 168.17ZM949.16 201.976C950.954 197.796 951.275 194.411 951.013 192.098C950.28 185.634 945.114 182.337 940.301 183.024C935.139 183.76 931.746 188.716 932.374 193.521C932.629 195.465 933.589 197.402 935.997 198.982C938.177 200.412 942.239 201.967 949.16 201.976Z" fill="url(#paint22_radial_65_154)"/>
<path fill-rule="evenodd" clip-rule="evenodd" d="M1049.07 168.17C1053.52 173.78 1052.58 181.94 1046.97 186.394C1039.25 192.527 1025.71 201.969 1009.68 210.276C996.293 217.218 980.427 223.758 964.353 226.534C957.512 235.229 947.885 243.707 935.416 251.603C929.364 255.436 921.351 253.638 917.517 247.586C913.685 241.533 915.483 233.52 921.535 229.687C924.325 227.919 926.862 226.179 929.168 224.471C926.523 223.438 924.052 222.173 921.767 220.673C912.841 214.816 907.854 206.078 906.652 196.887C904.367 179.425 916.018 160.283 936.637 157.342C956.252 154.543 974.447 168.516 976.79 189.175C977.06 191.557 977.121 193.962 976.972 196.383C983.965 193.9 990.988 190.747 997.745 187.244C1012.12 179.794 1024.27 171.297 1030.84 166.076C1036.46 161.622 1044.61 162.559 1049.07 168.17ZM949.16 201.976C950.954 197.796 951.275 194.411 951.013 192.098C950.28 185.634 945.114 182.337 940.301 183.024C935.139 183.76 931.746 188.716 932.374 193.521C932.629 195.465 933.589 197.402 935.997 198.982C938.177 200.412 942.239 201.967 949.16 201.976Z" fill="url(#paint23_radial_65_154)"/>
<path fill-rule="evenodd" clip-rule="evenodd" d="M1049.07 168.17C1053.52 173.78 1052.58 181.94 1046.97 186.394C1039.25 192.527 1025.71 201.969 1009.68 210.276C996.293 217.218 980.427 223.758 964.353 226.534C957.512 235.229 947.885 243.707 935.416 251.603C929.364 255.436 921.351 253.638 917.517 247.586C913.685 241.533 915.483 233.52 921.535 229.687C924.325 227.919 926.862 226.179 929.168 224.471C926.523 223.438 924.052 222.173 921.767 220.673C912.841 214.816 907.854 206.078 906.652 196.887C904.367 179.425 916.018 160.283 936.637 157.342C956.252 154.543 974.447 168.516 976.79 189.175C977.06 191.557 977.121 193.962 976.972 196.383C983.965 193.9 990.988 190.747 997.745 187.244C1012.12 179.794 1024.27 171.297 1030.84 166.076C1036.46 161.622 1044.61 162.559 1049.07 168.17ZM949.16 201.976C950.954 197.796 951.275 194.411 951.013 192.098C950.28 185.634 945.114 182.337 940.301 183.024C935.139 183.76 931.746 188.716 932.374 193.521C932.629 195.465 933.589 197.402 935.997 198.982C938.177 200.412 942.239 201.967 949.16 201.976Z" fill="url(#paint24_radial_65_154)"/>
<path fill-rule="evenodd" clip-rule="evenodd" d="M790.714 298.34C788.461 287.906 786.77 276.456 785.769 264.327C809.374 263.41 844.966 267.51 880.805 282.082C939.691 306.025 969.155 363.388 978.311 389.249C981.457 398.134 976.804 407.888 967.919 411.034C959.034 414.18 949.281 409.527 946.134 400.641C938.286 378.477 913.529 332.236 867.948 313.703C837.884 301.479 808.917 298.163 790.714 298.34Z" fill="url(#paint25_linear_65_154)"/>
<path fill-rule="evenodd" clip-rule="evenodd" d="M790.714 298.34C788.461 287.906 786.77 276.456 785.769 264.327C809.374 263.41 844.966 267.51 880.805 282.082C939.691 306.025 969.155 363.388 978.311 389.249C981.457 398.134 976.804 407.888 967.919 411.034C959.034 414.18 949.281 409.527 946.134 400.641C938.286 378.477 913.529 332.236 867.948 313.703C837.884 301.479 808.917 298.163 790.714 298.34Z" fill="url(#paint26_radial_65_154)"/>
<path fill-rule="evenodd" clip-rule="evenodd" d="M790.714 298.34C788.461 287.906 786.77 276.456 785.769 264.327C809.374 263.41 844.966 267.51 880.805 282.082C939.691 306.025 969.155 363.388 978.311 389.249C981.457 398.134 976.804 407.888 967.919 411.034C959.034 414.18 949.281 409.527 946.134 400.641C938.286 378.477 913.529 332.236 867.948 313.703C837.884 301.479 808.917 298.163 790.714 298.34Z" fill="url(#paint27_radial_65_154)"/>
<path fill-rule="evenodd" clip-rule="evenodd" d="M790.714 298.34C788.461 287.906 786.77 276.456 785.769 264.327C809.374 263.41 844.966 267.51 880.805 282.082C939.691 306.025 969.155 363.388 978.311 389.249C981.457 398.134 976.804 407.888 967.919 411.034C959.034 414.18 949.281 409.527 946.134 400.641C938.286 378.477 913.529 332.236 867.948 313.703C837.884 301.479 808.917 298.163 790.714 298.34Z" fill="url(#paint28_radial_65_154)"/>
<path fill-rule="evenodd" clip-rule="evenodd" d="M922.025 117.55C925.216 108.681 920.612 98.9045 911.742 95.7141C902.873 92.5236 893.096 97.1275 889.905 105.997C885.087 119.391 877.465 137.358 861.15 153.049C846.932 166.724 825.056 179.663 790.068 185.168C787.854 195.765 786.294 207.59 785.526 220.229C832.161 214.82 863.557 198.095 884.813 177.651C906.792 156.512 916.596 132.644 922.025 117.55Z" fill="url(#paint29_radial_65_154)"/>
<path fill-rule="evenodd" clip-rule="evenodd" d="M922.025 117.55C925.216 108.681 920.612 98.9045 911.742 95.7141C902.873 92.5236 893.096 97.1275 889.905 105.997C885.087 119.391 877.465 137.358 861.15 153.049C846.932 166.724 825.056 179.663 790.068 185.168C787.854 195.765 786.294 207.59 785.526 220.229C832.161 214.82 863.557 198.095 884.813 177.651C906.792 156.512 916.596 132.644 922.025 117.55Z" fill="url(#paint30_radial_65_154)"/>
<path d="M929.913 158.934C932.026 158.203 934.263 157.656 936.618 157.32C956.233 154.522 974.428 168.494 976.771 189.154C977.041 191.535 977.102 193.94 976.953 196.361C978.382 195.855 979.812 195.319 981.241 194.758C981.192 194.835 981.143 194.911 981.094 194.986C970.446 199.618 956.337 201.471 949.152 201.931C950.936 197.761 951.256 194.385 950.994 192.076C950.261 185.613 945.095 182.316 940.282 183.002C940.094 183.028 939.909 183.061 939.727 183.099L929.913 158.934Z" fill="url(#paint31_radial_65_154)"/>
<path d="M929.913 158.934C932.026 158.203 934.263 157.656 936.618 157.32C956.233 154.522 974.428 168.494 976.771 189.154C977.041 191.535 977.102 193.94 976.953 196.361C978.382 195.855 979.812 195.319 981.241 194.758C981.192 194.835 981.143 194.911 981.094 194.986C970.446 199.618 956.337 201.471 949.152 201.931C950.936 197.761 951.256 194.385 950.994 192.076C950.261 185.613 945.095 182.316 940.282 183.002C940.094 183.028 939.909 183.061 939.727 183.099L929.913 158.934Z" fill="url(#paint32_radial_65_154)"/>
<path d="M964.326 226.522C957.486 235.214 947.861 243.688 935.397 251.582C929.346 255.415 921.332 253.617 917.499 247.563C913.666 241.512 915.464 233.498 921.516 229.665C924.301 227.902 926.835 226.164 929.136 224.459C944.295 229.023 958.555 228.325 964.326 226.522Z" fill="#44B6FF"/>
<path d="M964.326 226.522C957.486 235.214 947.861 243.688 935.397 251.582C929.346 255.415 921.332 253.617 917.499 247.563C913.666 241.512 915.464 233.498 921.516 229.665C924.301 227.902 926.835 226.164 929.136 224.459C944.295 229.023 958.555 228.325 964.326 226.522Z" fill="url(#paint33_radial_65_154)"/>
<path d="M963.497 196.579C964.808 190.621 963.751 176.109 947.31 171.063C941.794 169.37 931.26 174.738 926.867 181.546" stroke="url(#paint34_linear_65_154)" stroke-width="1.17798" stroke-linecap="round"/>
<path d="M1042.77 180.331C1026.48 193.037 983.948 218.318 944.066 217.791" stroke="url(#paint35_linear_65_154)" stroke-width="1.17798" stroke-linecap="round"/>
<path d="M160.168 52.2108C154.824 59.2318 156.184 69.2555 163.205 74.5996C170.225 79.9436 180.249 78.5842 185.593 71.5633C190.937 64.5423 189.578 54.5185 182.557 49.1745C175.536 43.8305 165.512 45.1899 160.168 52.2108Z" fill="url(#paint36_radial_65_154)"/>
<path d="M160.168 52.2108C154.824 59.2318 156.184 69.2555 163.205 74.5996C170.225 79.9436 180.249 78.5842 185.593 71.5633C190.937 64.5423 189.578 54.5185 182.557 49.1745C175.536 43.8305 165.512 45.1899 160.168 52.2108Z" fill="url(#paint37_radial_65_154)"/>
<path d="M7.77375 101.01C2.42972 108.031 3.78911 118.055 10.8101 123.399C17.831 128.743 27.8548 127.384 33.1988 120.363C38.5429 113.342 37.1834 103.318 30.1625 97.9739C23.1416 92.6299 13.1178 93.9893 7.77375 101.01Z" fill="url(#paint38_radial_65_154)"/>
<path d="M7.77375 101.01C2.42972 108.031 3.78911 118.055 10.8101 123.399C17.831 128.743 27.8548 127.384 33.1988 120.363C38.5429 113.342 37.1834 103.318 30.1625 97.9739C23.1416 92.6299 13.1178 93.9893 7.77375 101.01Z" fill="url(#paint39_radial_65_154)"/>
<path d="M7.77375 101.01C2.42972 108.031 3.78911 118.055 10.8101 123.399C17.831 128.743 27.8548 127.384 33.1988 120.363C38.5429 113.342 37.1834 103.318 30.1625 97.9739C23.1416 92.6299 13.1178 93.9893 7.77375 101.01Z" fill="url(#paint40_radial_65_154)"/>
<path d="M183.784 218.163C178.44 225.184 179.799 235.208 186.82 240.552C193.841 245.896 203.865 244.537 209.209 237.516C214.553 230.495 213.193 220.471 206.172 215.127C199.151 209.783 189.128 211.142 183.784 218.163Z" fill="url(#paint41_radial_65_154)"/>
<path d="M183.784 218.163C178.44 225.184 179.799 235.208 186.82 240.552C193.841 245.896 203.865 244.537 209.209 237.516C214.553 230.495 213.193 220.471 206.172 215.127C199.151 209.783 189.128 211.142 183.784 218.163Z" fill="url(#paint42_radial_65_154)"/>
<path d="M333.583 101.349C328.238 108.37 329.598 118.394 336.619 123.738C343.64 129.082 353.664 127.723 359.008 120.702C364.352 113.681 362.992 103.657 355.971 98.3128C348.95 92.9688 338.927 94.3282 333.583 101.349Z" fill="url(#paint43_radial_65_154)"/>
<path d="M333.583 101.349C328.238 108.37 329.598 118.394 336.619 123.738C343.64 129.082 353.664 127.723 359.008 120.702C364.352 113.681 362.992 103.657 355.971 98.3128C348.95 92.9688 338.927 94.3282 333.583 101.349Z" fill="url(#paint44_radial_65_154)"/>
<path d="M333.583 101.349C328.238 108.37 329.598 118.394 336.619 123.738C343.64 129.082 353.664 127.723 359.008 120.702C364.352 113.681 362.992 103.657 355.971 98.3128C348.95 92.9688 338.927 94.3282 333.583 101.349Z" fill="url(#paint45_radial_65_154)"/>
<path d="M324.191 9.71752C318.847 16.7385 320.206 26.7623 327.227 32.1063C334.248 37.4503 344.272 36.0909 349.616 29.07C354.96 22.049 353.6 12.0252 346.579 6.6812C339.559 1.33717 329.535 2.69658 324.191 9.71752Z" fill="url(#paint46_radial_65_154)"/>
<path d="M324.191 9.71752C318.847 16.7385 320.206 26.7623 327.227 32.1063C334.248 37.4503 344.272 36.0909 349.616 29.07C354.96 22.049 353.6 12.0252 346.579 6.6812C339.559 1.33717 329.535 2.69658 324.191 9.71752Z" fill="url(#paint47_radial_65_154)"/>
<path fill-rule="evenodd" clip-rule="evenodd" d="M99.3015 221.944C135.664 189.582 135.346 153.861 132.956 140.796C131.569 133.22 136.586 125.956 144.16 124.571C151.736 123.185 159 128.201 160.385 135.776C164.093 156.034 163.122 202.475 117.841 242.776C112.089 247.895 103.275 247.383 98.1553 241.63C93.0364 235.878 93.5486 227.064 99.3015 221.944Z" fill="url(#paint48_radial_65_154)"/>
<path fill-rule="evenodd" clip-rule="evenodd" d="M99.3015 221.944C135.664 189.582 135.346 153.861 132.956 140.796C131.569 133.22 136.586 125.956 144.16 124.571C151.736 123.185 159 128.201 160.385 135.776C164.093 156.034 163.122 202.475 117.841 242.776C112.089 247.895 103.275 247.383 98.1553 241.63C93.0364 235.878 93.5486 227.064 99.3015 221.944Z" fill="url(#paint49_radial_65_154)"/>
<path fill-rule="evenodd" clip-rule="evenodd" d="M286.578 217.652C282.104 222.992 274.147 223.695 268.807 219.221C261.453 213.061 249.808 202.005 238.762 188.367C229.529 176.967 220.195 163.13 214.407 148.36C204.786 143.543 194.826 136.029 184.865 125.695C180.029 120.68 180.175 112.694 185.192 107.858C190.208 103.023 198.194 103.169 203.029 108.184C205.259 110.497 207.413 112.574 209.491 114.437C209.958 111.714 210.68 109.113 211.662 106.643C215.496 96.9936 222.845 90.5341 231.367 87.5914C247.555 81.9989 268.07 89.3549 274.904 108.423C281.406 126.562 271.654 146.629 252.43 152.902C250.214 153.625 247.935 154.153 245.599 154.485C249.332 160.662 253.709 166.735 258.368 172.488C268.277 184.722 278.748 194.636 285.008 199.881C290.349 204.355 291.052 212.311 286.578 217.652ZM234.831 129.083C239.165 129.975 242.452 129.619 244.605 128.916C250.619 126.954 252.75 121.388 251.154 116.936C249.443 112.163 244.059 109.9 239.603 111.438C237.802 112.061 236.144 113.354 235.109 115.958C234.173 118.314 233.487 122.488 234.831 129.083Z" fill="url(#paint50_linear_65_154)"/>
<path fill-rule="evenodd" clip-rule="evenodd" d="M286.578 217.652C282.104 222.992 274.147 223.695 268.807 219.221C261.453 213.061 249.808 202.005 238.762 188.367C229.529 176.967 220.195 163.13 214.407 148.36C204.786 143.543 194.826 136.029 184.865 125.695C180.029 120.68 180.175 112.694 185.192 107.858C190.208 103.023 198.194 103.169 203.029 108.184C205.259 110.497 207.413 112.574 209.491 114.437C209.958 111.714 210.68 109.113 211.662 106.643C215.496 96.9936 222.845 90.5341 231.367 87.5914C247.555 81.9989 268.07 89.3549 274.904 108.423C281.406 126.562 271.654 146.629 252.43 152.902C250.214 153.625 247.935 154.153 245.599 154.485C249.332 160.662 253.709 166.735 258.368 172.488C268.277 184.722 278.748 194.636 285.008 199.881C290.349 204.355 291.052 212.311 286.578 217.652ZM234.831 129.083C239.165 129.975 242.452 129.619 244.605 128.916C250.619 126.954 252.75 121.388 251.154 116.936C249.443 112.163 244.059 109.9 239.603 111.438C237.802 112.061 236.144 113.354 235.109 115.958C234.173 118.314 233.487 122.488 234.831 129.083Z" fill="url(#paint51_radial_65_154)"/>
<path fill-rule="evenodd" clip-rule="evenodd" d="M286.578 217.652C282.104 222.992 274.147 223.695 268.807 219.221C261.453 213.061 249.808 202.005 238.762 188.367C229.529 176.967 220.195 163.13 214.407 148.36C204.786 143.543 194.826 136.029 184.865 125.695C180.029 120.68 180.175 112.694 185.192 107.858C190.208 103.023 198.194 103.169 203.029 108.184C205.259 110.497 207.413 112.574 209.491 114.437C209.958 111.714 210.68 109.113 211.662 106.643C215.496 96.9936 222.845 90.5341 231.367 87.5914C247.555 81.9989 268.07 89.3549 274.904 108.423C281.406 126.562 271.654 146.629 252.43 152.902C250.214 153.625 247.935 154.153 245.599 154.485C249.332 160.662 253.709 166.735 258.368 172.488C268.277 184.722 278.748 194.636 285.008 199.881C290.349 204.355 291.052 212.311 286.578 217.652ZM234.831 129.083C239.165 129.975 242.452 129.619 244.605 128.916C250.619 126.954 252.75 121.388 251.154 116.936C249.443 112.163 244.059 109.9 239.603 111.438C237.802 112.061 236.144 113.354 235.109 115.958C234.173 118.314 233.487 122.488 234.831 129.083Z" fill="url(#paint52_radial_65_154)"/>
<path fill-rule="evenodd" clip-rule="evenodd" d="M286.578 217.652C282.104 222.992 274.147 223.695 268.807 219.221C261.453 213.061 249.808 202.005 238.762 188.367C229.529 176.967 220.195 163.13 214.407 148.36C204.786 143.543 194.826 136.029 184.865 125.695C180.029 120.68 180.175 112.694 185.192 107.858C190.208 103.023 198.194 103.169 203.029 108.184C205.259 110.497 207.413 112.574 209.491 114.437C209.958 111.714 210.68 109.113 211.662 106.643C215.496 96.9936 222.845 90.5341 231.367 87.5914C247.555 81.9989 268.07 89.3549 274.904 108.423C281.406 126.562 271.654 146.629 252.43 152.902C250.214 153.625 247.935 154.153 245.599 154.485C249.332 160.662 253.709 166.735 258.368 172.488C268.277 184.722 278.748 194.636 285.008 199.881C290.349 204.355 291.052 212.311 286.578 217.652ZM234.831 129.083C239.165 129.975 242.452 129.619 244.605 128.916C250.619 126.954 252.75 121.388 251.154 116.936C249.443 112.163 244.059 109.9 239.603 111.438C237.802 112.061 236.144 113.354 235.109 115.958C234.173 118.314 233.487 122.488 234.831 129.083Z" fill="url(#paint53_radial_65_154)"/>
<path fill-rule="evenodd" clip-rule="evenodd" d="M112.039 -3.01814C121.539 -7.20509 132.117 -11.0559 143.476 -14.3816C148.966 7.927 152.021 42.6369 145.148 79.6293C133.854 140.412 84.9688 179.7 62.1225 193.48C54.2727 198.216 44.0709 195.691 39.3354 187.841C34.6011 179.992 37.1262 169.79 44.976 165.055C64.5568 153.243 103.768 120.614 112.509 73.5652C118.275 42.5335 115.768 14.2884 112.039 -3.01814Z" fill="url(#paint54_linear_65_154)"/>
<path fill-rule="evenodd" clip-rule="evenodd" d="M112.039 -3.01814C121.539 -7.20509 132.117 -11.0559 143.476 -14.3816C148.966 7.927 152.021 42.6369 145.148 79.6293C133.854 140.412 84.9688 179.7 62.1225 193.48C54.2727 198.216 44.0709 195.691 39.3354 187.841C34.6011 179.992 37.1262 169.79 44.976 165.055C64.5568 153.243 103.768 120.614 112.509 73.5652C118.275 42.5335 115.768 14.2884 112.039 -3.01814Z" fill="url(#paint55_radial_65_154)"/>
<path fill-rule="evenodd" clip-rule="evenodd" d="M112.039 -3.01814C121.539 -7.20509 132.117 -11.0559 143.476 -14.3816C148.966 7.927 152.021 42.6369 145.148 79.6293C133.854 140.412 84.9688 179.7 62.1225 193.48C54.2727 198.216 44.0709 195.691 39.3354 187.841C34.6011 179.992 37.1262 169.79 44.976 165.055C64.5568 153.243 103.768 120.614 112.509 73.5652C118.275 42.5335 115.768 14.2884 112.039 -3.01814Z" fill="url(#paint56_radial_65_154)"/>
<path fill-rule="evenodd" clip-rule="evenodd" d="M112.039 -3.01814C121.539 -7.20509 132.117 -11.0559 143.476 -14.3816C148.966 7.927 152.021 42.6369 145.148 79.6293C133.854 140.412 84.9688 179.7 62.1225 193.48C54.2727 198.216 44.0709 195.691 39.3354 187.841C34.6011 179.992 37.1262 169.79 44.976 165.055C64.5568 153.243 103.768 120.614 112.509 73.5652C118.275 42.5335 115.768 14.2884 112.039 -3.01814Z" fill="url(#paint57_radial_65_154)"/>
<path fill-rule="evenodd" clip-rule="evenodd" d="M309.955 86.7202C319.029 88.0255 327.442 81.7275 328.747 72.6536C330.052 63.5797 323.754 55.1661 314.68 53.8613C300.978 51.8909 282.37 48.1431 264.23 35.6694C248.422 24.7986 231.817 6.48848 219.73 -25.7673C209.201 -25.804 197.63 -24.978 185.44 -23.2374C199.714 20.133 221.788 46.7724 245.421 63.0235C269.858 79.8283 294.514 84.5006 309.955 86.7202Z" fill="url(#paint58_radial_65_154)"/>
<path fill-rule="evenodd" clip-rule="evenodd" d="M309.955 86.7202C319.029 88.0255 327.442 81.7275 328.747 72.6536C330.052 63.5797 323.754 55.1661 314.68 53.8613C300.978 51.8909 282.37 48.1431 264.23 35.6694C248.422 24.7986 231.817 6.48848 219.73 -25.7673C209.201 -25.804 197.63 -24.978 185.44 -23.2374C199.714 20.133 221.788 46.7724 245.421 63.0235C269.858 79.8283 294.514 84.5006 309.955 86.7202Z" fill="url(#paint59_radial_65_154)"/>
<path d="M272.072 102.329C273.183 104.199 274.141 106.223 274.922 108.401C281.424 126.54 271.671 146.607 252.447 152.88C250.231 153.603 247.952 154.131 245.616 154.463C246.379 155.725 247.169 156.982 247.982 158.234C247.899 158.203 247.818 158.171 247.736 158.139C241.241 148.901 236.717 135.822 234.873 129.066C239.194 129.951 242.473 129.595 244.622 128.894C250.636 126.931 252.767 121.366 251.171 116.914C251.11 116.74 251.043 116.571 250.971 116.404L272.072 102.329Z" fill="url(#paint60_radial_65_154)"/>
<path d="M272.072 102.329C273.183 104.199 274.141 106.223 274.922 108.401C281.424 126.54 271.671 146.607 252.447 152.88C250.231 153.603 247.952 154.131 245.616 154.463C246.379 155.725 247.169 156.982 247.982 158.234C247.899 158.203 247.818 158.171 247.736 158.139C241.241 148.901 236.717 135.822 234.873 129.066C239.194 129.951 242.473 129.595 244.622 128.894C250.636 126.931 252.767 121.366 251.171 116.914C251.11 116.74 251.043 116.571 250.971 116.404L272.072 102.329Z" fill="url(#paint61_radial_65_154)"/>
<path d="M214.414 148.332C204.795 143.516 194.84 136.003 184.882 125.673C180.046 120.658 180.192 112.672 185.21 107.836C190.225 103.001 198.211 103.147 203.046 108.163C205.271 110.471 207.422 112.545 209.497 114.404C208.113 129.738 211.567 143.186 214.414 148.332Z" fill="#44B6FF"/>
<path d="M214.414 148.332C204.795 143.516 194.84 136.003 184.882 125.673C180.046 120.658 180.192 112.672 185.21 107.836C190.225 103.001 198.211 103.147 203.046 108.163C205.271 110.471 207.422 112.545 209.497 114.404C208.113 129.738 211.567 143.186 214.414 148.332Z" fill="url(#paint62_radial_65_154)"/>
<path d="M242.777 141.686C248.71 141.77 262.328 137.924 263.92 121.275C264.454 115.689 257.28 106.703 249.935 103.849" stroke="url(#paint63_linear_65_154)" stroke-width="1.17798" stroke-linecap="round"/>
<path d="M273.76 214.029C258.471 201 226.067 165.42 218.769 127.324" stroke="url(#paint64_linear_65_154)" stroke-width="1.17798" stroke-linecap="round"/>
<g clip-path="url(#clip2_65_154)">
<g clip-path="url(#clip3_65_154)">
<rect x="437.088" y="233.75" width="479.5" height="85.2253" rx="3.6" transform="rotate(-90 437.088 233.75)" fill="url(#paint65_linear_65_154)"/>
<rect x="437.088" y="233.75" width="479.5" height="85.2253" rx="3.6" transform="rotate(-90 437.088 233.75)" fill="url(#paint66_radial_65_154)"/>
<rect x="437.088" y="233.75" width="479.5" height="85.2253" rx="3.6" transform="rotate(-90 437.088 233.75)" fill="url(#paint67_radial_65_154)"/>
<rect x="437.088" y="233.75" width="479.5" height="85.2253" rx="3.6" transform="rotate(-90 437.088 233.75)" fill="url(#paint68_linear_65_154)"/>
<rect x="437.088" y="233.75" width="479.5" height="85.2253" rx="3.6" transform="rotate(-90 437.088 233.75)" fill="url(#paint69_linear_65_154)"/>
<rect x="437.088" y="233.75" width="479.5" height="85.2253" rx="3.6" transform="rotate(-90 437.088 233.75)" fill="url(#paint70_linear_65_154)"/>
<rect x="437.088" y="233.75" width="479.5" height="85.2253" rx="3.6" transform="rotate(-90 437.088 233.75)" fill="url(#paint71_linear_65_154)"/>
</g>
</g>
<g clip-path="url(#clip4_65_154)">
<g clip-path="url(#clip5_65_154)">
<rect x="703.588" y="420.787" width="487.375" height="86.625" rx="3.6" transform="rotate(-90 703.588 420.787)" fill="url(#paint72_linear_65_154)"/>
<rect x="703.588" y="420.787" width="487.375" height="86.625" rx="3.6" transform="rotate(-90 703.588 420.787)" fill="url(#paint73_radial_65_154)"/>
<rect x="703.588" y="420.787" width="487.375" height="86.625" rx="3.6" transform="rotate(-90 703.588 420.787)" fill="url(#paint74_radial_65_154)"/>
<rect x="703.588" y="420.787" width="487.375" height="86.625" rx="3.6" transform="rotate(-90 703.588 420.787)" fill="url(#paint75_linear_65_154)"/>
<rect x="703.588" y="420.787" width="487.375" height="86.625" rx="3.6" transform="rotate(-90 703.588 420.787)" fill="url(#paint76_linear_65_154)"/>
<rect x="703.588" y="420.787" width="487.375" height="86.625" rx="3.6" transform="rotate(-90 703.588 420.787)" fill="url(#paint77_linear_65_154)"/>
<rect x="703.588" y="420.787" width="487.375" height="86.625" rx="3.6" transform="rotate(-90 703.588 420.787)" fill="url(#paint78_linear_65_154)"/>
</g>
</g>
<path d="M478.592 311.063C472.4 311.063 467.38 316.083 467.38 322.275C467.38 328.468 472.4 333.488 478.592 333.488C484.785 333.488 489.805 328.468 489.805 322.275C489.805 316.083 484.785 311.063 478.592 311.063Z" fill="url(#paint79_radial_65_154)"/>
<path d="M478.869 445.888H478.869C482.473 445.888 485.394 442.967 485.394 439.363V403.704C485.394 400.1 482.473 397.178 478.869 397.178H478.869C475.265 397.178 472.344 400.1 472.344 403.704V439.363C472.344 442.967 475.265 445.888 478.869 445.888Z" fill="url(#paint80_linear_65_154)"/>
<path d="M562.05 411.058L562.05 411.057C564.598 408.509 564.598 404.378 562.05 401.829L536.835 376.615C534.287 374.066 530.155 374.066 527.607 376.615L527.607 376.615C525.059 379.163 525.059 383.294 527.607 385.843L552.822 411.058C555.37 413.606 559.502 413.606 562.05 411.058Z" fill="url(#paint81_linear_65_154)"/>
<path d="M560.763 244.837L560.763 244.837C563.312 247.386 563.312 251.517 560.763 254.065L535.548 279.28C533 281.829 528.869 281.829 526.32 279.28L526.32 279.28C523.772 276.732 523.772 272.6 526.32 270.052L551.535 244.837C554.083 242.289 558.215 242.289 560.763 244.837Z" fill="url(#paint82_radial_65_154)"/>
<path d="M395.136 411.058L395.136 411.057C392.588 408.509 392.588 404.378 395.136 401.829L420.351 376.614C422.899 374.066 427.031 374.066 429.579 376.614L429.579 376.615C432.128 379.163 432.128 383.294 429.579 385.843L404.364 411.058C401.816 413.606 397.685 413.606 395.136 411.058Z" fill="url(#paint83_radial_65_154)"/>
<path d="M396.239 244.837L396.239 244.837C393.691 247.386 393.691 251.517 396.239 254.065L421.454 279.28C424.002 281.829 428.134 281.829 430.682 279.28L430.682 279.28C433.231 276.732 433.231 272.6 430.682 270.052L405.467 244.837C402.919 242.289 398.788 242.289 396.239 244.837Z" fill="url(#paint84_linear_65_154)"/>
<path d="M595.907 327.422V327.422C595.907 323.818 592.986 320.897 589.382 320.897H553.723C550.119 320.897 547.197 323.818 547.197 327.422V327.422C547.197 331.026 550.119 333.947 553.723 333.947H589.382C592.986 333.947 595.907 331.026 595.907 327.422Z" fill="url(#paint85_radial_65_154)"/>
<path d="M361.28 327.422V327.422C361.28 323.818 364.201 320.897 367.805 320.897H403.464C407.068 320.897 409.989 323.818 409.989 327.422V327.422C409.989 331.026 407.068 333.948 403.464 333.948H367.805C364.201 333.948 361.28 331.026 361.28 327.422Z" fill="url(#paint86_radial_65_154)"/>
<path d="M478.869 473H478.869C482.473 473 485.394 470.079 485.394 466.475V458.111C485.394 454.508 482.473 451.586 478.869 451.586H478.869C475.265 451.586 472.344 454.508 472.344 458.111V466.475C472.344 470.079 475.265 473 478.869 473Z" fill="url(#paint87_linear_65_154)"/>
<path d="M581.404 430.28L581.404 430.28C583.953 427.732 583.953 423.6 581.404 421.052L575.491 415.138C572.942 412.59 568.811 412.59 566.263 415.138L566.263 415.138C563.714 417.686 563.714 421.818 566.263 424.366L572.176 430.28C574.725 432.828 578.856 432.828 581.404 430.28Z" fill="url(#paint88_linear_65_154)"/>
<path d="M580.118 225.614L580.118 225.614C582.666 228.162 582.666 232.294 580.118 234.842L574.204 240.756C571.656 243.304 567.524 243.304 564.976 240.756L564.976 240.756C562.428 238.208 562.428 234.076 564.976 231.528L570.89 225.614C573.438 223.066 577.57 223.066 580.118 225.614Z" fill="url(#paint89_radial_65_154)"/>
<path d="M375.782 430.28L375.782 430.28C373.234 427.732 373.234 423.6 375.782 421.052L381.696 415.138C384.244 412.59 388.376 412.59 390.924 415.138L390.924 415.138C393.472 417.686 393.472 421.818 390.924 424.366L385.01 430.28C382.462 432.828 378.33 432.828 375.782 430.28Z" fill="url(#paint90_radial_65_154)"/>
<path d="M376.884 225.614L376.884 225.614C374.336 228.162 374.336 232.294 376.884 234.842L382.798 240.756C385.347 243.304 389.478 243.304 392.026 240.756L392.026 240.756C394.575 238.208 394.575 234.076 392.026 231.528L386.113 225.614C383.564 223.066 379.433 223.066 376.884 225.614Z" fill="url(#paint91_linear_65_154)"/>
<path d="M623.186 327.33V327.33C623.186 323.726 620.264 320.804 616.66 320.804H608.297C604.693 320.804 601.772 323.726 601.772 327.33V327.33C601.772 330.933 604.693 333.855 608.297 333.855H616.66C620.264 333.855 623.186 330.933 623.186 327.33Z" fill="url(#paint92_radial_65_154)"/>
<path d="M334 327.33V327.33C334 323.726 336.921 320.804 340.525 320.804H348.889C352.492 320.804 355.414 323.726 355.414 327.33V327.33C355.414 330.933 352.492 333.855 348.889 333.855H340.525C336.921 333.855 334 330.933 334 327.33Z" fill="url(#paint93_radial_65_154)"/>
<path d="M518.115 401.294C519.404 404.465 517.878 408.081 514.705 409.37C511.534 410.659 507.917 409.132 506.629 405.96L483.944 350.12C482.654 346.948 484.181 343.332 487.353 342.044C490.526 340.755 494.141 342.282 495.43 345.453L518.115 401.294Z" fill="url(#paint94_linear_65_154)"/>
<path d="M559.146 353.018C562.255 354.657 563.379 358.552 561.622 361.595C559.957 364.477 556.313 365.53 553.368 363.977L500.186 335.938C497.077 334.299 495.952 330.406 497.71 327.361C499.374 324.479 503.019 323.427 505.963 324.979L559.146 353.018Z" fill="url(#paint95_linear_65_154)"/>
<path d="M398.502 353.57C395.393 355.209 394.27 359.103 396.027 362.147C397.691 365.029 401.336 366.081 404.281 364.529L457.463 336.49C460.572 334.851 461.696 330.956 459.939 327.913C458.275 325.031 454.629 323.978 451.686 325.531L398.502 353.57Z" fill="url(#paint96_radial_65_154)"/>
<path d="M397.361 298.446C393.975 297.505 392.048 293.939 393.118 290.591C394.131 287.421 397.468 285.617 400.675 286.508L458.605 302.593C461.991 303.534 463.918 307.1 462.849 310.448C461.836 313.618 458.498 315.421 455.29 314.531L397.361 298.446Z" fill="url(#paint97_linear_65_154)"/>
<path d="M560.795 297.986C564.181 297.046 566.108 293.479 565.038 290.132C564.025 286.961 560.687 285.158 557.48 286.049L499.551 302.134C496.164 303.074 494.237 306.639 495.308 309.987C496.32 313.158 499.658 314.961 502.865 314.07L560.795 297.986Z" fill="url(#paint98_linear_65_154)"/>
<path d="M560.795 297.986C564.181 297.046 566.108 293.479 565.038 290.132C564.025 286.961 560.687 285.158 557.48 286.049L499.551 302.134C496.164 303.074 494.237 306.639 495.308 309.987C496.32 313.158 499.658 314.961 502.865 314.07L560.795 297.986Z" fill="url(#paint99_radial_65_154)"/>
<path d="M519.044 250.068C520.565 246.846 519.059 243.008 515.752 241.681C512.713 240.463 509.251 241.821 507.853 244.782L493.232 275.741C491.71 278.964 493.217 282.801 496.524 284.127C499.563 285.345 503.025 283.987 504.423 281.027L519.044 250.068Z" fill="url(#paint100_linear_65_154)"/>
<path d="M440.08 249.33C438.713 246.039 440.401 242.278 443.766 241.111C446.86 240.038 450.253 241.56 451.509 244.583L464.638 276.204C466.005 279.494 464.317 283.256 460.951 284.423C457.857 285.496 454.464 283.974 453.208 280.95L440.08 249.33Z" fill="url(#paint101_linear_65_154)"/>
<path d="M439.895 401.431C438.581 404.609 440.104 408.249 443.29 409.544C446.447 410.827 450.049 409.319 451.352 406.17L474.295 350.691C475.609 347.514 474.085 343.874 470.9 342.58C467.741 341.297 464.14 342.804 462.838 345.954L439.895 401.431Z" fill="url(#paint102_radial_65_154)"/>
<path d="M520.448 420.982C517.2 420.982 514.566 423.615 514.566 426.864C514.566 430.112 517.2 432.746 520.448 432.746C523.697 432.746 526.33 430.112 526.33 426.864C526.33 423.615 523.697 420.982 520.448 420.982Z" fill="url(#paint103_radial_65_154)"/>
<path d="M519.069 221.42C515.821 221.42 513.187 224.054 513.187 227.302C513.187 230.551 515.821 233.184 519.069 233.184C522.318 233.184 524.951 230.551 524.951 227.302C524.951 224.054 522.318 221.42 519.069 221.42Z" fill="url(#paint104_radial_65_154)"/>
<path d="M436.696 420.982C433.448 420.982 430.814 423.615 430.814 426.864C430.814 430.112 433.448 432.745 436.696 432.745C439.945 432.745 442.578 430.112 442.578 426.864C442.578 423.615 439.945 420.982 436.696 420.982Z" fill="url(#paint105_radial_65_154)"/>
<path d="M436.722 221.42C433.474 221.42 430.84 224.054 430.84 227.302C430.84 230.551 433.474 233.184 436.722 233.184C439.971 233.184 442.604 230.551 442.604 227.302C442.604 224.054 439.971 221.42 436.722 221.42Z" fill="url(#paint106_radial_65_154)"/>
<path d="M377.84 279.3C374.591 279.3 371.958 281.933 371.958 285.182C371.958 288.43 374.591 291.064 377.84 291.064C381.088 291.064 383.722 288.43 383.722 285.182C383.722 281.933 381.088 279.3 377.84 279.3Z" fill="url(#paint107_radial_65_154)"/>
<path d="M578.436 278.611C575.188 278.611 572.554 281.244 572.554 284.493C572.554 287.741 575.188 290.374 578.436 290.374C581.685 290.374 584.318 287.741 584.318 284.493C584.318 281.244 581.685 278.611 578.436 278.611Z" fill="url(#paint108_radial_65_154)"/>
<path d="M578.436 278.611C575.188 278.611 572.554 281.244 572.554 284.493C572.554 287.741 575.188 290.374 578.436 290.374C581.685 290.374 584.318 287.741 584.318 284.493C584.318 281.244 581.685 278.611 578.436 278.611Z" fill="url(#paint109_radial_65_154)"/>
<path d="M377.746 362.921C374.498 362.921 371.865 365.555 371.865 368.803C371.865 372.052 374.498 374.685 377.746 374.685C380.995 374.685 383.628 372.052 383.628 368.803C383.628 365.555 380.995 362.921 377.746 362.921Z" fill="url(#paint110_radial_65_154)"/>
<path d="M578.528 361.403C575.28 361.403 572.646 364.037 572.646 367.285C572.646 370.534 575.28 373.167 578.528 373.167C581.777 373.167 584.41 370.534 584.41 367.285C584.41 364.037 581.777 361.403 578.528 361.403Z" fill="url(#paint111_radial_65_154)"/>
<path d="M578.528 361.403C575.28 361.403 572.646 364.037 572.646 367.285C572.646 370.534 575.28 373.167 578.528 373.167C581.777 373.167 584.41 370.534 584.41 367.285C584.41 364.037 581.777 361.403 578.528 361.403Z" fill="url(#paint112_radial_65_154)"/>
<path d="M217.214 366.931L306.997 315.564C314.627 311.199 324.126 316.708 324.126 325.499V429.659C324.126 438.51 314.509 444.012 306.879 439.525L217.097 386.731C209.519 382.276 209.585 371.296 217.214 366.931Z" fill="url(#paint113_linear_65_154)"/>
<path d="M217.214 366.931L306.997 315.564C314.627 311.199 324.126 316.708 324.126 325.499V429.659C324.126 438.51 314.509 444.012 306.879 439.525L217.097 386.731C209.519 382.276 209.585 371.296 217.214 366.931Z" fill="url(#paint114_linear_65_154)"/>
<path d="M217.214 366.931L306.997 315.564C314.627 311.199 324.126 316.708 324.126 325.499V429.659C324.126 438.51 314.509 444.012 306.879 439.525L217.097 386.731C209.519 382.276 209.585 371.296 217.214 366.931Z" fill="url(#paint115_linear_65_154)"/>
<path d="M217.214 366.931L306.997 315.564C314.627 311.199 324.126 316.708 324.126 325.499V429.659C324.126 438.51 314.509 444.012 306.879 439.525L217.097 386.731C209.519 382.276 209.585 371.296 217.214 366.931Z" fill="url(#paint116_linear_65_154)"/>
<path d="M468.931 328.786L417.565 239.003C413.199 231.373 418.708 221.874 427.499 221.874H531.659C540.51 221.874 546.012 231.491 541.525 239.121L488.732 328.903C484.276 336.481 473.296 336.415 468.931 328.786Z" fill="url(#paint117_linear_65_154)"/>
<path d="M468.931 328.786L417.565 239.003C413.199 231.373 418.708 221.874 427.499 221.874H531.659C540.51 221.874 546.012 231.491 541.525 239.121L488.732 328.903C484.276 336.481 473.296 336.415 468.931 328.786Z" fill="url(#paint118_linear_65_154)"/>
<path d="M468.931 328.786L417.565 239.003C413.199 231.373 418.708 221.874 427.499 221.874H531.659C540.51 221.874 546.012 231.491 541.525 239.121L488.732 328.903C484.276 336.481 473.296 336.415 468.931 328.786Z" fill="url(#paint119_linear_65_154)"/>
<path d="M468.931 328.786L417.565 239.003C413.199 231.373 418.708 221.874 427.499 221.874H531.659C540.51 221.874 546.012 231.491 541.525 239.121L488.732 328.903C484.276 336.481 473.296 336.415 468.931 328.786Z" fill="url(#paint120_linear_65_154)"/>
</g>
<defs>
<linearGradient id="paint0_linear_65_154" x1="546.5" y1="334.188" x2="546.5" y2="420.812" gradientUnits="userSpaceOnUse">
<stop stop-color="#F70707"/>
<stop offset="1" stop-color="#ED0101" stop-opacity="0.63"/>
</linearGradient>
<radialGradient id="paint1_radial_65_154" cx="0" cy="0" r="1" gradientUnits="userSpaceOnUse" gradientTransform="translate(764.078 338.828) rotate(169.922) scale(44.1976 17.7883)">
<stop stop-color="#FE7AAA" stop-opacity="0.7"/>
<stop offset="1" stop-color="#FE7AAA" stop-opacity="0"/>
</radialGradient>
<radialGradient id="paint2_radial_65_154" cx="0" cy="0" r="1" gradientUnits="userSpaceOnUse" gradientTransform="translate(320.219 417.719) rotate(-8.66222) scale(61.6248 21.6884)">
<stop stop-color="#F01B3E" stop-opacity="0.7"/>
<stop offset="1" stop-color="#F70830" stop-opacity="0"/>
</radialGradient>
<linearGradient id="paint3_linear_65_154" x1="790.187" y1="377.5" x2="711.859" y2="377.5" gradientUnits="userSpaceOnUse">
<stop stop-color="#FE7AAA" stop-opacity="0"/>
<stop offset="0.479167" stop-color="#FE7AAA" stop-opacity="0.1"/>
<stop offset="1" stop-color="#FE7AAA" stop-opacity="0"/>
</linearGradient>
<linearGradient id="paint4_linear_65_154" x1="546.5" y1="334.187" x2="546.5" y2="346.562" gradientUnits="userSpaceOnUse">
<stop stop-color="#FE7AAA" stop-opacity="0"/>
<stop offset="0.479167" stop-color="#FE7AAA" stop-opacity="0.13"/>
<stop offset="1" stop-color="#FE7AAA" stop-opacity="0"/>
</linearGradient>
<linearGradient id="paint5_linear_65_154" x1="546.5" y1="334.188" x2="546.5" y2="420.812" gradientUnits="userSpaceOnUse">
<stop stop-color="#D63F76" stop-opacity="0.35"/>
<stop offset="0.058296" stop-color="#D63F76" stop-opacity="0"/>
<stop offset="0.872197" stop-color="#CE3952" stop-opacity="0"/>
<stop offset="0.939462" stop-color="#C8354E" stop-opacity="0.438597"/>
<stop offset="1" stop-color="#B62F45"/>
</linearGradient>
<linearGradient id="paint6_linear_65_154" x1="788.468" y1="376.723" x2="307.65" y2="376.723" gradientUnits="userSpaceOnUse">
<stop stop-color="#D63F76" stop-opacity="0.35"/>
<stop offset="0.058296" stop-color="#D63F76" stop-opacity="0"/>
<stop offset="0.872197" stop-color="#D63F58" stop-opacity="0"/>
<stop offset="0.939462" stop-color="#F90606" stop-opacity="0.438597"/>
<stop offset="1" stop-color="#FD0000"/>
</linearGradient>
<radialGradient id="paint7_radial_65_154" cx="0" cy="0" r="1" gradientUnits="userSpaceOnUse" gradientTransform="translate(876.814 252.999) rotate(-172.454) scale(23.5816)">
<stop stop-color="#5AC0FF"/>
<stop offset="1" stop-color="#3279B6"/>
</radialGradient>
<radialGradient id="paint8_radial_65_154" cx="0" cy="0" r="1" gradientUnits="userSpaceOnUse" gradientTransform="translate(872.499 251.426) rotate(-151.071) scale(23.681 25.9574)">
<stop offset="0.534713" stop-color="#3A619E" stop-opacity="0"/>
<stop offset="1" stop-color="#3A619E"/>
</radialGradient>
<radialGradient id="paint9_radial_65_154" cx="0" cy="0" r="1" gradientUnits="userSpaceOnUse" gradientTransform="translate(897.798 416.671) rotate(-176.553) scale(27.0008)">
<stop stop-color="#FDD46C"/>
<stop offset="1" stop-color="#F09C53"/>
</radialGradient>
<radialGradient id="paint10_radial_65_154" cx="0" cy="0" r="1" gradientUnits="userSpaceOnUse" gradientTransform="translate(894.631 410.861) rotate(149.705) scale(26.7455)">
<stop offset="0.792052" stop-color="#E76260" stop-opacity="0"/>
<stop offset="0.964251" stop-color="#E76260"/>
</radialGradient>
<radialGradient id="paint11_radial_65_154" cx="0" cy="0" r="1" gradientUnits="userSpaceOnUse" gradientTransform="translate(889.421 421.753) rotate(-98.6801) scale(27.0852 31.8966)">
<stop offset="0.482355" stop-color="#AA885A" stop-opacity="0"/>
<stop offset="0.90682" stop-color="#AA885A"/>
</radialGradient>
<radialGradient id="paint12_radial_65_154" cx="0" cy="0" r="1" gradientUnits="userSpaceOnUse" gradientTransform="translate(1053.26 265.667) rotate(-178.735) scale(28.1285 28.1285)">
<stop stop-color="#FF46AA"/>
<stop offset="1" stop-color="#E3189D"/>
</radialGradient>
<radialGradient id="paint13_radial_65_154" cx="0" cy="0" r="1" gradientUnits="userSpaceOnUse" gradientTransform="translate(1043.01 268.196) rotate(-124.412) scale(25.5627 34.2109)">
<stop offset="0.522105" stop-color="#B63173" stop-opacity="0"/>
<stop offset="1" stop-color="#B63173"/>
</radialGradient>
<radialGradient id="paint14_radial_65_154" cx="0" cy="0" r="1" gradientUnits="userSpaceOnUse" gradientTransform="translate(966.052 89.7576) rotate(-171.548) scale(25.1391)">
<stop stop-color="#FFF46F"/>
<stop offset="1" stop-color="#EFB93C"/>
</radialGradient>
<radialGradient id="paint15_radial_65_154" cx="0" cy="0" r="1" gradientUnits="userSpaceOnUse" gradientTransform="translate(960.737 89.6234) rotate(-129.641) scale(26.1422 24.8905)">
<stop offset="0.558644" stop-color="#AA904B" stop-opacity="0"/>
<stop offset="0.943632" stop-color="#AA904B"/>
</radialGradient>
<radialGradient id="paint16_radial_65_154" cx="0" cy="0" r="1" gradientUnits="userSpaceOnUse" gradientTransform="translate(963.784 83.0468) rotate(151.217) scale(27.9533 27.9533)">
<stop offset="0.771901" stop-color="#C47072" stop-opacity="0"/>
<stop offset="1" stop-color="#C47072"/>
</radialGradient>
<radialGradient id="paint17_radial_65_154" cx="0" cy="0" r="1" gradientUnits="userSpaceOnUse" gradientTransform="translate(872.336 81.1439) rotate(-178.735) scale(28.1285)">
<stop stop-color="#FF46AA"/>
<stop offset="1" stop-color="#E3189D"/>
</radialGradient>
<radialGradient id="paint18_radial_65_154" cx="0" cy="0" r="1" gradientUnits="userSpaceOnUse" gradientTransform="translate(862.094 83.6735) rotate(-124.412) scale(25.5627 34.2109)">
<stop offset="0.522105" stop-color="#B63173" stop-opacity="0"/>
<stop offset="1" stop-color="#B63173"/>
</radialGradient>
<radialGradient id="paint19_radial_65_154" cx="0" cy="0" r="1" gradientUnits="userSpaceOnUse" gradientTransform="translate(1023.88 342.954) rotate(-142.839) scale(58.828 21.9474)">
<stop stop-color="#FF3BA9"/>
<stop offset="1" stop-color="#F422A7"/>
</radialGradient>
<radialGradient id="paint20_radial_65_154" cx="0" cy="0" r="1" gradientUnits="userSpaceOnUse" gradientTransform="translate(960.536 341.761) rotate(-78.4771) scale(60.6559 108.101)">
<stop offset="0.752144" stop-color="#B8306F" stop-opacity="0"/>
<stop offset="1" stop-color="#B8306F"/>
</radialGradient>
<linearGradient id="paint21_linear_65_154" x1="1048.7" y1="167.731" x2="897.975" y2="218.089" gradientUnits="userSpaceOnUse">
<stop stop-color="#20B2EE"/>
<stop offset="1" stop-color="#2689DA"/>
</linearGradient>
<radialGradient id="paint22_radial_65_154" cx="0" cy="0" r="1" gradientUnits="userSpaceOnUse" gradientTransform="translate(1003.98 188.946) rotate(177.095) scale(105.962 64.8147)">
<stop offset="0.80204" stop-color="#4274D2" stop-opacity="0"/>
<stop offset="0.950917" stop-color="#4274D2"/>
</radialGradient>
<radialGradient id="paint23_radial_65_154" cx="0" cy="0" r="1" gradientUnits="userSpaceOnUse" gradientTransform="translate(1009.74 176.883) rotate(60.9727) scale(15.2729 51.2721)">
<stop stop-color="#4D8EC0"/>
<stop offset="1" stop-color="#4D8EC0" stop-opacity="0"/>
</radialGradient>
<radialGradient id="paint24_radial_65_154" cx="0" cy="0" r="1" gradientUnits="userSpaceOnUse" gradientTransform="translate(1054.57 177.956) rotate(-169.169) scale(18.6926 16.8059)">
<stop stop-color="#5ADEFF"/>
<stop offset="1" stop-color="#5ADEFF" stop-opacity="0"/>
</radialGradient>
<linearGradient id="paint25_linear_65_154" x1="805.553" y1="296.418" x2="962.108" y2="402.784" gradientUnits="userSpaceOnUse">
<stop stop-color="#3797E2"/>
<stop offset="1" stop-color="#37AEFF"/>
</linearGradient>
<radialGradient id="paint26_radial_65_154" cx="0" cy="0" r="1" gradientUnits="userSpaceOnUse" gradientTransform="translate(827.54 367.123) rotate(-80.9601) scale(108.958 273.126)">
<stop offset="0.622552" stop-color="#526579" stop-opacity="0"/>
<stop offset="0.962126" stop-color="#526579"/>
</radialGradient>
<radialGradient id="paint27_radial_65_154" cx="0" cy="0" r="1" gradientUnits="userSpaceOnUse" gradientTransform="translate(912.084 374.548) rotate(143.277) scale(37.4005 75.1942)">
<stop offset="0.396078" stop-color="#6972FF"/>
<stop offset="1" stop-color="#6972FF" stop-opacity="0"/>
</radialGradient>
<radialGradient id="paint28_radial_65_154" cx="0" cy="0" r="1" gradientUnits="userSpaceOnUse" gradientTransform="translate(972.236 395.652) rotate(-19.9407) scale(10.2544 8.0868)">
<stop stop-color="#55BFFF"/>
<stop offset="1" stop-color="#55BFFF" stop-opacity="0"/>
</radialGradient>
<radialGradient id="paint29_radial_65_154" cx="0" cy="0" r="1" gradientUnits="userSpaceOnUse" gradientTransform="translate(930.112 122.306) rotate(148.301) scale(99.8346 37.4019)">
<stop stop-color="#FF3AAA"/>
<stop offset="1" stop-color="#FD2F89"/>
</radialGradient>
<radialGradient id="paint30_radial_65_154" cx="0" cy="0" r="1" gradientUnits="userSpaceOnUse" gradientTransform="translate(818.28 150.745) rotate(80.0536) scale(65.6537 206.04)">
<stop offset="0.803698" stop-color="#DB2C6E" stop-opacity="0"/>
<stop offset="1" stop-color="#DB2C6E"/>
</radialGradient>
<radialGradient id="paint31_radial_65_154" cx="0" cy="0" r="1" gradientUnits="userSpaceOnUse" gradientTransform="translate(948.465 207.342) rotate(-70.3521) scale(37.3888 27.9484)">
<stop stop-color="#336BAF"/>
<stop offset="1" stop-color="#336BAF" stop-opacity="0"/>
</radialGradient>
<radialGradient id="paint32_radial_65_154" cx="0" cy="0" r="1" gradientUnits="userSpaceOnUse" gradientTransform="translate(977.712 197.938) rotate(-78.7791) scale(25.3293 10.2623)">
<stop stop-color="#49A4D4"/>
<stop offset="1" stop-color="#49A4D4" stop-opacity="0"/>
</radialGradient>
<radialGradient id="paint33_radial_65_154" cx="0" cy="0" r="1" gradientUnits="userSpaceOnUse" gradientTransform="translate(964.309 224.758) rotate(143.728) scale(35.3278 19.6615)">
<stop stop-color="#4AB5F8"/>
<stop offset="1" stop-color="#4AB5F8" stop-opacity="0"/>
</radialGradient>
<linearGradient id="paint34_linear_65_154" x1="936.8" y1="166.362" x2="968.784" y2="188.848" gradientUnits="userSpaceOnUse">
<stop stop-color="#4EAFF2"/>
<stop offset="1" stop-color="#4EAFF2" stop-opacity="0"/>
</linearGradient>
<linearGradient id="paint35_linear_65_154" x1="1051.73" y1="168.54" x2="924.087" y2="209.179" gradientUnits="userSpaceOnUse">
<stop stop-color="#5BDDFF"/>
<stop offset="1" stop-color="#5BDDFF" stop-opacity="0"/>
</linearGradient>
<radialGradient id="paint36_radial_65_154" cx="0" cy="0" r="1" gradientUnits="userSpaceOnUse" gradientTransform="translate(172.075 70.1397) rotate(-94.0552) scale(22.9342)">
<stop stop-color="#5AC0FF"/>
<stop offset="1" stop-color="#3279B6"/>
</radialGradient>
<radialGradient id="paint37_radial_65_154" cx="0" cy="0" r="1" gradientUnits="userSpaceOnUse" gradientTransform="translate(172.729 65.7215) rotate(-72.6722) scale(23.0309 25.2447)">
<stop offset="0.534713" stop-color="#3A619E" stop-opacity="0"/>
<stop offset="1" stop-color="#3A619E"/>
</radialGradient>
<radialGradient id="paint38_radial_65_154" cx="0" cy="0" r="1" gradientUnits="userSpaceOnUse" gradientTransform="translate(20.2517 122.141) rotate(-98.1542) scale(26.2595)">
<stop stop-color="#FDD46C"/>
<stop offset="1" stop-color="#F09C53"/>
</radialGradient>
<radialGradient id="paint39_radial_65_154" cx="0" cy="0" r="1" gradientUnits="userSpaceOnUse" gradientTransform="translate(25.1672 117.987) rotate(-131.896) scale(26.0112)">
<stop offset="0.792052" stop-color="#E76260" stop-opacity="0"/>
<stop offset="0.964251" stop-color="#E76260"/>
</radialGradient>
<radialGradient id="paint40_radial_65_154" cx="0" cy="0" r="1" gradientUnits="userSpaceOnUse" gradientTransform="translate(13.7714 115.154) rotate(-20.2812) scale(26.3416 31.0208)">
<stop offset="0.482355" stop-color="#AA885A" stop-opacity="0"/>
<stop offset="0.90682" stop-color="#AA885A"/>
</radialGradient>
<radialGradient id="paint41_radial_65_154" cx="0" cy="0" r="1" gradientUnits="userSpaceOnUse" gradientTransform="translate(194.513 240.709) rotate(-100.336) scale(27.3562 27.3562)">
<stop stop-color="#FF46AA"/>
<stop offset="1" stop-color="#E3189D"/>
</radialGradient>
<radialGradient id="paint42_radial_65_154" cx="0" cy="0" r="1" gradientUnits="userSpaceOnUse" gradientTransform="translate(190.101 231.446) rotate(-46.0132) scale(24.8608 33.2716)">
<stop offset="0.522105" stop-color="#B63173" stop-opacity="0"/>
<stop offset="1" stop-color="#B63173"/>
</radialGradient>
<radialGradient id="paint43_radial_65_154" cx="0" cy="0" r="1" gradientUnits="userSpaceOnUse" gradientTransform="translate(345.043 123.229) rotate(-93.1492) scale(24.4489)">
<stop stop-color="#FFF46F"/>
<stop offset="1" stop-color="#EFB93C"/>
</radialGradient>
<radialGradient id="paint44_radial_65_154" cx="0" cy="0" r="1" gradientUnits="userSpaceOnUse" gradientTransform="translate(344.132 118.139) rotate(-51.2422) scale(25.4244 24.2071)">
<stop offset="0.558644" stop-color="#AA904B" stop-opacity="0"/>
<stop offset="0.943632" stop-color="#AA904B"/>
</radialGradient>
<radialGradient id="paint45_radial_65_154" cx="0" cy="0" r="1" gradientUnits="userSpaceOnUse" gradientTransform="translate(350.993 119.755) rotate(-130.384) scale(27.1859 27.1859)">
<stop offset="0.771901" stop-color="#C47072" stop-opacity="0"/>
<stop offset="1" stop-color="#C47072"/>
</radialGradient>
<radialGradient id="paint46_radial_65_154" cx="0" cy="0" r="1" gradientUnits="userSpaceOnUse" gradientTransform="translate(334.921 32.2628) rotate(-100.336) scale(27.3562)">
<stop stop-color="#FF46AA"/>
<stop offset="1" stop-color="#E3189D"/>
</radialGradient>
<radialGradient id="paint47_radial_65_154" cx="0" cy="0" r="1" gradientUnits="userSpaceOnUse" gradientTransform="translate(330.508 23.0003) rotate(-46.0132) scale(24.8609 33.2716)">
<stop offset="0.522105" stop-color="#B63173" stop-opacity="0"/>
<stop offset="1" stop-color="#B63173"/>
</radialGradient>
<radialGradient id="paint48_radial_65_154" cx="0" cy="0" r="1" gradientUnits="userSpaceOnUse" gradientTransform="translate(115.139 227.841) rotate(-64.4402) scale(57.2129 21.3449)">
<stop stop-color="#FF3BA9"/>
<stop offset="1" stop-color="#F422A7"/>
</radialGradient>
<radialGradient id="paint49_radial_65_154" cx="0" cy="0" r="1" gradientUnits="userSpaceOnUse" gradientTransform="translate(103.887 167.259) rotate(-0.0782306) scale(58.9906 105.133)">
<stop offset="0.752144" stop-color="#B8306F" stop-opacity="0"/>
<stop offset="1" stop-color="#B8306F"/>
</radialGradient>
<linearGradient id="paint50_linear_65_154" x1="286.924" y1="217.219" x2="209.471" y2="83.4712" gradientUnits="userSpaceOnUse">
<stop stop-color="#20B2EE"/>
<stop offset="1" stop-color="#2689DA"/>
</linearGradient>
<radialGradient id="paint51_radial_65_154" cx="0" cy="0" r="1" gradientUnits="userSpaceOnUse" gradientTransform="translate(257.966 178.76) rotate(-104.506) scale(103.053 63.0352)">
<stop offset="0.80204" stop-color="#4274D2" stop-opacity="0"/>
<stop offset="0.950917" stop-color="#4274D2"/>
</radialGradient>
<radialGradient id="paint52_radial_65_154" cx="0" cy="0" r="1" gradientUnits="userSpaceOnUse" gradientTransform="translate(270.585 181.887) rotate(139.372) scale(14.8536 49.8645)">
<stop stop-color="#4D8EC0"/>
<stop offset="1" stop-color="#4D8EC0" stop-opacity="0"/>
</radialGradient>
<radialGradient id="paint53_radial_65_154" cx="0" cy="0" r="1" gradientUnits="userSpaceOnUse" gradientTransform="translate(278.331 224.81) rotate(-90.7702) scale(18.1794 16.3445)">
<stop stop-color="#5ADEFF"/>
<stop offset="1" stop-color="#5ADEFF" stop-opacity="0"/>
</radialGradient>
<linearGradient id="paint54_linear_65_154" x1="116.773" y1="10.7428" x2="46.0591" y2="180.691" gradientUnits="userSpaceOnUse">
<stop stop-color="#3797E2"/>
<stop offset="1" stop-color="#37AEFF"/>
</linearGradient>
<radialGradient id="paint55_radial_65_154" cx="0" cy="0" r="1" gradientUnits="userSpaceOnUse" gradientTransform="translate(53.7139 45.5175) rotate(-2.56124) scale(105.966 265.627)">
<stop offset="0.622552" stop-color="#526579" stop-opacity="0"/>
<stop offset="0.962126" stop-color="#526579"/>
</radialGradient>
<radialGradient id="paint56_radial_65_154" cx="0" cy="0" r="1" gradientUnits="userSpaceOnUse" gradientTransform="translate(63.1747 127.513) rotate(-138.325) scale(36.3737 73.1297)">
<stop offset="0.396078" stop-color="#6972FF"/>
<stop offset="1" stop-color="#6972FF" stop-opacity="0"/>
</radialGradient>
<radialGradient id="paint57_radial_65_154" cx="0" cy="0" r="1" gradientUnits="userSpaceOnUse" gradientTransform="translate(54.8338 188.945) rotate(58.4582) scale(9.97289 7.86478)">
<stop stop-color="#55BFFF"/>
<stop offset="1" stop-color="#55BFFF" stop-opacity="0"/>
</radialGradient>
<radialGradient id="paint58_radial_65_154" cx="0" cy="0" r="1" gradientUnits="userSpaceOnUse" gradientTransform="translate(307.006 95.3544) rotate(-133.3) scale(97.0936 36.375)">
<stop stop-color="#FF3AAA"/>
<stop offset="1" stop-color="#FD2F89"/>
</radialGradient>
<radialGradient id="paint59_radial_65_154" cx="0" cy="0" r="1" gradientUnits="userSpaceOnUse" gradientTransform="translate(258.041 -5.62329) rotate(158.452) scale(63.8512 200.383)">
<stop offset="0.803698" stop-color="#DB2C6E" stop-opacity="0"/>
<stop offset="1" stop-color="#DB2C6E"/>
</radialGradient>
<radialGradient id="paint60_radial_65_154" cx="0" cy="0" r="1" gradientUnits="userSpaceOnUse" gradientTransform="translate(229.584 129.47) rotate(8.04676) scale(36.3623 27.1811)">
<stop stop-color="#336BAF"/>
<stop offset="1" stop-color="#336BAF" stop-opacity="0"/>
</radialGradient>
<radialGradient id="paint61_radial_65_154" cx="0" cy="0" r="1" gradientUnits="userSpaceOnUse" gradientTransform="translate(244.262 155.495) rotate(-0.380239) scale(24.6339 9.98057)">
<stop stop-color="#49A4D4"/>
<stop offset="1" stop-color="#49A4D4" stop-opacity="0"/>
</radialGradient>
<radialGradient id="paint62_radial_65_154" cx="0" cy="0" r="1" gradientUnits="userSpaceOnUse" gradientTransform="translate(216.09 147.971) rotate(-137.873) scale(34.3578 19.1217)">
<stop stop-color="#4AB5F8"/>
<stop offset="1" stop-color="#4AB5F8" stop-opacity="0"/>
</radialGradient>
<linearGradient id="paint63_linear_65_154" x1="266.343" y1="110.343" x2="251.177" y2="145.211" gradientUnits="userSpaceOnUse">
<stop stop-color="#4EAFF2"/>
<stop offset="1" stop-color="#4EAFF2" stop-opacity="0"/>
</linearGradient>
<linearGradient id="paint64_linear_65_154" x1="286.746" y1="220.263" x2="223.066" y2="106.605" gradientUnits="userSpaceOnUse">
<stop stop-color="#5BDDFF"/>
<stop offset="1" stop-color="#5BDDFF" stop-opacity="0"/>
</linearGradient>
<linearGradient id="paint65_linear_65_154" x1="676.838" y1="233.75" x2="676.838" y2="318.975" gradientUnits="userSpaceOnUse">
<stop stop-color="#5BB3FD"/>
<stop offset="1" stop-color="#3F70D6"/>
</linearGradient>
<radialGradient id="paint66_radial_65_154" cx="0" cy="0" r="1" gradientUnits="userSpaceOnUse" gradientTransform="translate(890.9 238.316) rotate(169.922) scale(43.4835 17.5009)">
<stop stop-color="#7AD3FE" stop-opacity="0"/>
<stop offset="1" stop-color="#7AD3FE" stop-opacity="0.1"/>
</radialGradient>
<radialGradient id="paint67_radial_65_154" cx="0" cy="0" r="1" gradientUnits="userSpaceOnUse" gradientTransform="translate(454.213 315.932) rotate(-8.66222) scale(60.6291 21.338)">
<stop stop-color="#3F70D6" stop-opacity="0.438597"/>
<stop offset="1" stop-color="#3F70D6" stop-opacity="0"/>
</radialGradient>
<linearGradient id="paint68_linear_65_154" x1="916.588" y1="276.363" x2="839.525" y2="276.363" gradientUnits="userSpaceOnUse">
<stop stop-color="#FE7AAA" stop-opacity="0"/>
<stop offset="0.479167" stop-color="#FE7AAA" stop-opacity="0.1"/>
<stop offset="1" stop-color="#FE7AAA" stop-opacity="0"/>
</linearGradient>
<linearGradient id="paint69_linear_65_154" x1="676.838" y1="233.75" x2="676.838" y2="245.925" gradientUnits="userSpaceOnUse">
<stop stop-color="#FE7AAA" stop-opacity="0"/>
<stop offset="0.479167" stop-color="#FE7AAA" stop-opacity="0.13"/>
<stop offset="1" stop-color="#FE7AAA" stop-opacity="0"/>
</linearGradient>
<linearGradient id="paint70_linear_65_154" x1="676.838" y1="233.75" x2="676.838" y2="318.975" gradientUnits="userSpaceOnUse">
<stop stop-color="#7AD3FE" stop-opacity="0.13"/>
<stop offset="0.058296" stop-color="#31BAF3" stop-opacity="0"/>
<stop offset="0.872197" stop-color="#3F70D6" stop-opacity="0.35"/>
<stop offset="0.939462" stop-color="#31BAF3" stop-opacity="0"/>
<stop offset="1" stop-color="#5BB3FD"/>
</linearGradient>
<linearGradient id="paint71_linear_65_154" x1="914.896" y1="275.598" x2="441.847" y2="275.598" gradientUnits="userSpaceOnUse">
<stop stop-color="#7AD3FE" stop-opacity="0.1"/>
<stop offset="0.058296" stop-color="#7AD3FE" stop-opacity="0.7"/>
<stop offset="0.872197" stop-color="#7AD3FE" stop-opacity="0.13"/>
<stop offset="0.939462" stop-color="#7AD3FE" stop-opacity="0.13"/>
<stop offset="1" stop-color="#3F70D6"/>
</linearGradient>
<linearGradient id="paint72_linear_65_154" x1="947.275" y1="420.787" x2="947.275" y2="507.412" gradientUnits="userSpaceOnUse">
<stop stop-color="#F70707"/>
<stop offset="1" stop-color="#ED0101" stop-opacity="0.63"/>
</linearGradient>
<radialGradient id="paint73_radial_65_154" cx="0" cy="0" r="1" gradientUnits="userSpaceOnUse" gradientTransform="translate(1164.85 425.428) rotate(169.922) scale(44.1976 17.7883)">
<stop stop-color="#FE7AAA" stop-opacity="0.7"/>
<stop offset="1" stop-color="#FE7AAA" stop-opacity="0"/>
</radialGradient>
<radialGradient id="paint74_radial_65_154" cx="0" cy="0" r="1" gradientUnits="userSpaceOnUse" gradientTransform="translate(720.994 504.319) rotate(-8.66222) scale(61.6248 21.6884)">
<stop stop-color="#F01B3E" stop-opacity="0.7"/>
<stop offset="1" stop-color="#F70830" stop-opacity="0"/>
</radialGradient>
<linearGradient id="paint75_linear_65_154" x1="1190.96" y1="464.1" x2="1112.63" y2="464.1" gradientUnits="userSpaceOnUse">
<stop stop-color="#FE7AAA" stop-opacity="0"/>
<stop offset="0.479167" stop-color="#FE7AAA" stop-opacity="0.1"/>
<stop offset="1" stop-color="#FE7AAA" stop-opacity="0"/>
</linearGradient>
<linearGradient id="paint76_linear_65_154" x1="947.275" y1="420.787" x2="947.275" y2="433.162" gradientUnits="userSpaceOnUse">
<stop stop-color="#FE7AAA" stop-opacity="0"/>
<stop offset="0.479167" stop-color="#FE7AAA" stop-opacity="0.13"/>
<stop offset="1" stop-color="#FE7AAA" stop-opacity="0"/>
</linearGradient>
<linearGradient id="paint77_linear_65_154" x1="947.275" y1="420.787" x2="947.275" y2="507.412" gradientUnits="userSpaceOnUse">
<stop stop-color="#D63F76" stop-opacity="0.35"/>
<stop offset="0.058296" stop-color="#D63F76" stop-opacity="0"/>
<stop offset="0.872197" stop-color="#CE3952" stop-opacity="0"/>
<stop offset="0.939462" stop-color="#C8354E" stop-opacity="0.438597"/>
<stop offset="1" stop-color="#B62F45"/>
</linearGradient>
<linearGradient id="paint78_linear_65_154" x1="1189.24" y1="463.323" x2="708.425" y2="463.323" gradientUnits="userSpaceOnUse">
<stop stop-color="#D63F76" stop-opacity="0.35"/>
<stop offset="0.058296" stop-color="#D63F76" stop-opacity="0"/>
<stop offset="0.872197" stop-color="#D63F58" stop-opacity="0"/>
<stop offset="0.939462" stop-color="#F90606" stop-opacity="0.438597"/>
<stop offset="1" stop-color="#FD0000"/>
</linearGradient>
<radialGradient id="paint79_radial_65_154" cx="0" cy="0" r="1" gradientUnits="userSpaceOnUse" gradientTransform="translate(472.713 327.33) rotate(-43.727) scale(17.5508)">
<stop stop-color="#FFC957"/>
<stop offset="1" stop-color="#E99948"/>
</radialGradient>
<linearGradient id="paint80_linear_65_154" x1="469.86" y1="415.894" x2="480.558" y2="415.894" gradientUnits="userSpaceOnUse">
<stop stop-color="#F65E88"/>
<stop offset="1" stop-color="#D71F6B"/>
</linearGradient>
<linearGradient id="paint81_linear_65_154" x1="543.438" y1="401.737" x2="549.552" y2="395.623" gradientUnits="userSpaceOnUse">
<stop stop-color="#F15676"/>
<stop offset="1" stop-color="#DA295E"/>
</linearGradient>
<radialGradient id="paint82_radial_65_154" cx="0" cy="0" r="1" gradientUnits="userSpaceOnUse" gradientTransform="translate(528.222 277.334) rotate(-45.3431) scale(43.412 7.01689)">
<stop stop-color="#F65B7F"/>
<stop offset="1" stop-color="#D62E52"/>
</radialGradient>
<radialGradient id="paint83_radial_65_154" cx="0" cy="0" r="1" gradientUnits="userSpaceOnUse" gradientTransform="translate(396.613 409.677) rotate(-45.0842) scale(46.6894 10.2662)">
<stop stop-color="#EC548A"/>
<stop offset="1" stop-color="#DC257C"/>
</radialGradient>
<linearGradient id="paint84_linear_65_154" x1="410.689" y1="267.459" x2="418.331" y2="258.508" gradientUnits="userSpaceOnUse">
<stop stop-color="#FB568D"/>
<stop offset="1" stop-color="#E31F86"/>
</linearGradient>
<radialGradient id="paint85_radial_65_154" cx="0" cy="0" r="1" gradientUnits="userSpaceOnUse" gradientTransform="translate(548.593 327.422) scale(32.4418 9.43019)">
<stop stop-color="#F15675"/>
<stop offset="1" stop-color="#DF3456"/>
</radialGradient>
<radialGradient id="paint86_radial_65_154" cx="0" cy="0" r="1" gradientUnits="userSpaceOnUse" gradientTransform="translate(367.385 327.422) scale(30.6388 7.40296)">
<stop stop-color="#F85E9A"/>
<stop offset="1" stop-color="#DB1E8A"/>
</radialGradient>
<linearGradient id="paint87_linear_65_154" x1="469.86" y1="459.814" x2="480.558" y2="459.814" gradientUnits="userSpaceOnUse">
<stop stop-color="#F65E88"/>
<stop offset="1" stop-color="#D71F6B"/>
</linearGradient>
<linearGradient id="paint88_linear_65_154" x1="570.619" y1="428.786" x2="576.733" y2="422.672" gradientUnits="userSpaceOnUse">
<stop stop-color="#F15676"/>
<stop offset="1" stop-color="#DA295E"/>
</linearGradient>
<radialGradient id="paint89_radial_65_154" cx="0" cy="0" r="1" gradientUnits="userSpaceOnUse" gradientTransform="translate(562.778 238.917) rotate(-44.1815) scale(18.1981 6.91204)">
<stop stop-color="#F65B7F"/>
<stop offset="1" stop-color="#D62E52"/>
</radialGradient>
<radialGradient id="paint90_radial_65_154" cx="0" cy="0" r="1" gradientUnits="userSpaceOnUse" gradientTransform="translate(373.725 429.565) rotate(-44.3415) scale(20.7263 7.04203)">
<stop stop-color="#F55E94"/>
<stop offset="1" stop-color="#D8207F"/>
</radialGradient>
<linearGradient id="paint91_linear_65_154" x1="380.947" y1="237.85" x2="387.583" y2="228.31" gradientUnits="userSpaceOnUse">
<stop stop-color="#FB568D"/>
<stop offset="1" stop-color="#E31F86"/>
</linearGradient>
<radialGradient id="paint92_radial_65_154" cx="0" cy="0" r="1" gradientUnits="userSpaceOnUse" gradientTransform="translate(602.385 327.33) scale(14.2622 9.43019)">
<stop stop-color="#F15675"/>
<stop offset="1" stop-color="#DF3456"/>
</radialGradient>
<radialGradient id="paint93_radial_65_154" cx="0" cy="0" r="1" gradientUnits="userSpaceOnUse" gradientTransform="translate(335.582 327.33) scale(12.8818 6.52527)">
<stop stop-color="#F85E9A"/>
<stop offset="1" stop-color="#DB1E8A"/>
</radialGradient>
<linearGradient id="paint94_linear_65_154" x1="496.53" y1="380.993" x2="508.177" y2="375.706" gradientUnits="userSpaceOnUse">
<stop offset="0.0280515" stop-color="#FFC75D"/>
<stop offset="0.598514" stop-color="#E99D43"/>
</linearGradient>
<linearGradient id="paint95_linear_65_154" x1="529.666" y1="351.47" x2="536.045" y2="338.797" gradientUnits="userSpaceOnUse">
<stop offset="0.0280515" stop-color="#FFC75D"/>
<stop offset="0.663742" stop-color="#E99D43"/>
</linearGradient>
<radialGradient id="paint96_radial_65_154" cx="0" cy="0" r="1" gradientUnits="userSpaceOnUse" gradientTransform="translate(398.452 360.417) rotate(-28.113) scale(60.8521 26.1441)">
<stop stop-color="#F4BF38"/>
<stop offset="1" stop-color="#E49B40"/>
</radialGradient>
<linearGradient id="paint97_linear_65_154" x1="418.12" y1="302.883" x2="421.061" y2="292.59" gradientUnits="userSpaceOnUse">
<stop stop-color="#F4BF38"/>
<stop offset="1" stop-color="#E49B40"/>
</linearGradient>
<linearGradient id="paint98_linear_65_154" x1="531.358" y1="314.799" x2="527.668" y2="298.423" gradientUnits="userSpaceOnUse">
<stop offset="0.0280515" stop-color="#FFC75D"/>
<stop offset="1" stop-color="#E99D43"/>
</linearGradient>
<radialGradient id="paint99_radial_65_154" cx="0" cy="0" r="1" gradientUnits="userSpaceOnUse" gradientTransform="translate(495.148 311.801) rotate(-20.171) scale(12.0396 8.39602)">
<stop stop-color="#FDC05E"/>
<stop offset="1" stop-color="#FDC05E" stop-opacity="0"/>
</radialGradient>
<linearGradient id="paint100_linear_65_154" x1="495.838" y1="254.371" x2="512.213" y2="262.905" gradientUnits="userSpaceOnUse">
<stop offset="0.0280515" stop-color="#FFC75D"/>
<stop offset="0.928536" stop-color="#E99D43"/>
</linearGradient>
<linearGradient id="paint101_linear_65_154" x1="449.735" y1="266.304" x2="461.867" y2="260.422" gradientUnits="userSpaceOnUse">
<stop offset="0.0280515" stop-color="#FFC75D"/>
<stop offset="0.928536" stop-color="#E99D43"/>
</linearGradient>
<radialGradient id="paint102_radial_65_154" cx="0" cy="0" r="1" gradientUnits="userSpaceOnUse" gradientTransform="translate(443.45 406.409) rotate(-66.292) scale(60.8139 14.8473)">
<stop stop-color="#F4BF38"/>
<stop offset="1" stop-color="#E49B40"/>
</radialGradient>
<radialGradient id="paint103_radial_65_154" cx="0" cy="0" r="1" gradientUnits="userSpaceOnUse" gradientTransform="translate(517.364 429.515) rotate(-43.727) scale(9.20696)">
<stop stop-color="#FFC957"/>
<stop offset="1" stop-color="#E99948"/>
</radialGradient>
<radialGradient id="paint104_radial_65_154" cx="0" cy="0" r="1" gradientUnits="userSpaceOnUse" gradientTransform="translate(515.985 229.954) rotate(-43.727) scale(9.20696)">
<stop stop-color="#FFC957"/>
<stop offset="1" stop-color="#E99948"/>
</radialGradient>
<radialGradient id="paint105_radial_65_154" cx="0" cy="0" r="1" gradientUnits="userSpaceOnUse" gradientTransform="translate(433.612 429.515) rotate(-43.727) scale(9.20696)">
<stop stop-color="#FED05D"/>
<stop offset="1" stop-color="#E6A546"/>
</radialGradient>
<radialGradient id="paint106_radial_65_154" cx="0" cy="0" r="1" gradientUnits="userSpaceOnUse" gradientTransform="translate(433.638 229.954) rotate(-43.727) scale(9.20696)">
<stop stop-color="#FFC957"/>
<stop offset="1" stop-color="#E99948"/>
</radialGradient>
<radialGradient id="paint107_radial_65_154" cx="0" cy="0" r="1" gradientUnits="userSpaceOnUse" gradientTransform="translate(374.754 287.833) rotate(-43.727) scale(9.20696)">
<stop stop-color="#FFD453"/>
<stop offset="1" stop-color="#EDAE4C"/>
</radialGradient>
<radialGradient id="paint108_radial_65_154" cx="0" cy="0" r="1" gradientUnits="userSpaceOnUse" gradientTransform="translate(575.351 287.144) rotate(-43.727) scale(9.20696)">
<stop stop-color="#FFC957"/>
<stop offset="1" stop-color="#E99948"/>
</radialGradient>
<radialGradient id="paint109_radial_65_154" cx="0" cy="0" r="1" gradientUnits="userSpaceOnUse" gradientTransform="translate(578.436 288.73) rotate(-90) scale(10.12)">
<stop offset="0.435912" stop-color="#E2834F" stop-opacity="0"/>
<stop offset="1" stop-color="#E2834F"/>
</radialGradient>
<radialGradient id="paint110_radial_65_154" cx="0" cy="0" r="1" gradientUnits="userSpaceOnUse" gradientTransform="translate(374.662 371.455) rotate(-43.727) scale(9.20696)">
<stop stop-color="#FFDB62"/>
<stop offset="1" stop-color="#E9B04B"/>
</radialGradient>
<radialGradient id="paint111_radial_65_154" cx="0" cy="0" r="1" gradientUnits="userSpaceOnUse" gradientTransform="translate(575.443 369.938) rotate(-43.727) scale(9.20696)">
<stop stop-color="#FFC957"/>
<stop offset="1" stop-color="#E99948"/>
</radialGradient>
<radialGradient id="paint112_radial_65_154" cx="0" cy="0" r="1" gradientUnits="userSpaceOnUse" gradientTransform="translate(578.528 371.524) rotate(-90) scale(10.12)">
<stop offset="0.435912" stop-color="#E2834F" stop-opacity="0"/>
<stop offset="1" stop-color="#E2834F"/>
</radialGradient>
<linearGradient id="paint113_linear_65_154" x1="324.126" y1="359.66" x2="222.233" y2="359.66" gradientUnits="userSpaceOnUse">
<stop stop-color="#FD648D"/>
<stop offset="1" stop-color="#A80963"/>
</linearGradient>
<linearGradient id="paint114_linear_65_154" x1="324.126" y1="377.578" x2="286.241" y2="377.578" gradientUnits="userSpaceOnUse">
<stop stop-color="#D54366"/>
<stop offset="0.269276" stop-color="#D54366" stop-opacity="0"/>
</linearGradient>
<linearGradient id="paint115_linear_65_154" x1="267.789" y1="415.825" x2="292.925" y2="371.636" gradientUnits="userSpaceOnUse">
<stop stop-color="#C6248D"/>
<stop offset="0.2207" stop-color="#C6248D" stop-opacity="0"/>
</linearGradient>
<linearGradient id="paint116_linear_65_154" x1="267.789" y1="338.243" x2="298.139" y2="390.181" gradientUnits="userSpaceOnUse">
<stop stop-color="#D03F60"/>
<stop offset="0.217908" stop-color="#D03F60" stop-opacity="0"/>
</linearGradient>
<linearGradient id="paint117_linear_65_154" x1="461.66" y1="221.874" x2="461.66" y2="323.767" gradientUnits="userSpaceOnUse">
<stop stop-color="#3F70D6"/>
<stop offset="1" stop-color="#5194EC"/>
</linearGradient>
<linearGradient id="paint118_linear_65_154" x1="479.578" y1="221.874" x2="479.578" y2="259.759" gradientUnits="userSpaceOnUse">
<stop stop-color="#3F70D6"/>
<stop offset="0.269276" stop-color="#5BB3FD"/>
</linearGradient>
<linearGradient id="paint119_linear_65_154" x1="517.825" y1="278.211" x2="473.636" y2="253.075" gradientUnits="userSpaceOnUse">
<stop stop-color="#3F70D6"/>
<stop offset="0.2207" stop-color="#7AD3FE" stop-opacity="0.13"/>
</linearGradient>
<linearGradient id="paint120_linear_65_154" x1="440.243" y1="278.211" x2="492.181" y2="247.861" gradientUnits="userSpaceOnUse">
<stop stop-color="#7AD3FE" stop-opacity="0.1"/>
<stop offset="0.217908" stop-color="#D03F60" stop-opacity="0"/>
</linearGradient>
<clipPath id="clip0_65_154">
<rect width="1096" height="480" fill="white"/>
</clipPath>
<clipPath id="clip1_65_154">
<rect width="557" height="99" fill="white" transform="translate(268 328)"/>
</clipPath>
<clipPath id="clip2_65_154">
<rect width="548" height="97.4004" fill="white" transform="matrix(0 -1 1 0 431 268)"/>
</clipPath>
<clipPath id="clip3_65_154">
<rect width="548" height="97.4004" fill="white" transform="matrix(0 -1 1 0 431 268)"/>
</clipPath>
<clipPath id="clip4_65_154">
<rect width="557" height="99" fill="white" transform="matrix(0 -1 1 0 697.4 455.6)"/>
</clipPath>
<clipPath id="clip5_65_154">
<rect width="557" height="99" fill="white" transform="matrix(0 -1 1 0 697.4 455.6)"/>
</clipPath>
</defs>
</svg>
